<svg width="766" height="765" viewBox="0 0 766 765" fill="none" xmlns="http://www.w3.org/2000/svg">
<path d="M138.98 616.59C276.344 688.347 499.066 688.347 636.445 616.59C773.823 544.833 773.808 428.4 636.445 356.704C499.081 285.008 276.344 284.947 138.98 356.704C1.61704 428.461 1.60174 544.787 138.98 616.59Z" fill="#EDE9F2"/>
<path d="M255.78 567.156L382.051 640.061C383.391 640.74 384.872 641.093 386.373 641.093C387.875 641.093 389.356 640.74 390.696 640.061L632.436 500.831C634.822 499.454 634.822 497.22 632.436 495.843L505.905 422.785C504.565 422.107 503.084 421.753 501.582 421.753C500.081 421.753 498.6 422.107 497.26 422.785L255.826 562.184C253.378 563.545 253.378 565.779 255.78 567.156Z" fill="#E4DFEC"/>
<path d="M99.9498 422.77L166.03 460.744C167.37 461.423 168.851 461.777 170.353 461.777C171.855 461.777 173.335 461.423 174.675 460.744L253.96 414.967C256.346 413.59 256.346 411.356 253.96 409.979L188.261 372.035C186.919 371.356 185.436 371.002 183.931 371.002C182.427 371.002 180.944 371.356 179.602 372.035L99.9498 417.782C97.4712 419.22 97.4712 421.393 99.9498 422.77Z" fill="#E0E0E0"/>
<path d="M627.081 449.3C626.714 449.147 625.551 424.391 636.261 409.811C646.971 395.23 659.823 393.547 668.3 397.096C676.776 400.646 675.032 409.336 664.597 414.569C654.162 419.801 641.173 428.92 638.082 445.567L627.081 449.3Z" fill="#37474F"/>
<path opacity="0.1" d="M627.081 449.3C626.714 449.147 625.551 424.391 636.261 409.811C646.971 395.23 659.823 393.547 668.3 397.096C676.776 400.646 675.032 409.336 664.597 414.569C654.162 419.801 641.173 428.92 638.082 445.567L627.081 449.3Z" fill="black"/>
<path d="M630.998 442.033C631.185 442.032 631.365 441.966 631.508 441.846C631.651 441.725 631.747 441.559 631.779 441.375C635.772 416.237 650.628 403.921 663.205 400.784C663.318 400.771 663.426 400.735 663.524 400.677C663.621 400.619 663.705 400.54 663.77 400.447C663.834 400.354 663.878 400.248 663.899 400.137C663.919 400.025 663.916 399.91 663.888 399.8C663.861 399.69 663.81 399.588 663.739 399.499C663.669 399.41 663.58 399.337 663.479 399.285C663.378 399.234 663.268 399.204 663.154 399.199C663.041 399.193 662.928 399.212 662.823 399.254C649.756 402.513 634.334 415.243 630.203 441.13C630.172 441.341 630.225 441.555 630.351 441.727C630.477 441.899 630.666 442.014 630.876 442.048L630.998 442.033Z" fill="white"/>
<path d="M628.994 495.246C630.615 488.728 637.179 484.413 644.936 483.709C652.984 482.99 662.363 482.179 664.826 475.386C667.289 468.593 664.826 459.367 665.943 454.854C667.335 449.376 669.431 446.117 680.004 442.797C689.49 439.737 694.738 430.756 685.175 426.931C675.613 423.106 666.05 425.524 659.548 428.461C653.045 431.399 652.739 434.443 643.59 433.663C634.44 432.883 627.601 438.636 627.035 444.174L628.994 495.246Z" fill="#37474F"/>
<path d="M628.994 473.122C629.157 473.121 629.315 473.07 629.449 472.977C629.583 472.885 629.685 472.754 629.744 472.602C637.271 451.625 667.994 432.653 678.275 431.445C678.485 431.418 678.676 431.31 678.808 431.144C678.939 430.978 679.001 430.768 678.979 430.557C678.968 430.453 678.936 430.352 678.885 430.261C678.834 430.169 678.765 430.089 678.682 430.025C678.599 429.96 678.504 429.913 678.403 429.887C678.301 429.86 678.196 429.854 678.092 429.869C667.581 431.108 635.971 450.554 628.244 472.066C628.18 472.265 628.195 472.481 628.286 472.67C628.378 472.858 628.538 473.003 628.734 473.076C628.817 473.107 628.905 473.123 628.994 473.122Z" fill="white"/>
<path d="M636.2 460.53H636.383C636.588 460.483 636.765 460.356 636.877 460.179C636.989 460.001 637.026 459.786 636.98 459.581C634.44 448.657 636.98 441.619 636.98 441.543C637.017 441.445 637.033 441.342 637.029 441.238C637.025 441.134 637 441.032 636.955 440.938C636.911 440.844 636.849 440.76 636.772 440.69C636.694 440.621 636.604 440.567 636.506 440.533C636.408 440.496 636.303 440.48 636.198 440.484C636.093 440.488 635.99 440.512 635.895 440.557C635.799 440.601 635.714 440.663 635.643 440.741C635.572 440.818 635.517 440.908 635.481 441.007C635.374 441.298 632.819 448.519 635.481 459.933C635.524 460.095 635.617 460.239 635.746 460.346C635.875 460.452 636.033 460.517 636.2 460.53Z" fill="white"/>
<path d="M630.998 468.578C631.126 468.579 631.253 468.547 631.365 468.487C637.485 465.121 650.949 467.523 651.087 467.538C651.196 467.583 651.314 467.604 651.433 467.598C651.551 467.592 651.666 467.56 651.77 467.504C651.875 467.448 651.965 467.369 652.035 467.273C652.105 467.178 652.152 467.068 652.174 466.952C652.197 466.836 652.192 466.716 652.162 466.602C652.132 466.487 652.077 466.381 652.001 466.29C651.925 466.2 651.829 466.128 651.721 466.079C651.614 466.03 651.496 466.006 651.378 466.008C650.797 465.901 637.287 463.499 630.616 467.11C630.523 467.159 630.441 467.227 630.374 467.309C630.308 467.39 630.258 467.484 630.228 467.586C630.198 467.687 630.189 467.793 630.2 467.897C630.211 468.002 630.244 468.104 630.295 468.196C630.368 468.316 630.471 468.415 630.595 468.482C630.718 468.549 630.858 468.583 630.998 468.578Z" fill="white"/>
<path d="M245.575 411.539L233.075 404.318L245.575 400.707V411.539Z" fill="black"/>
<path d="M170.559 444.021V455.527L101.786 415.823V404.318L170.559 444.021Z" fill="black"/>
<path d="M95.5435 314.078L164.302 353.782V447.617L95.5435 407.928V314.078Z" fill="#263238"/>
<path d="M164.302 353.782L258.075 299.651V393.485L164.302 447.617V353.782Z" fill="#37474F"/>
<path d="M258.075 299.651L189.317 259.948L95.5435 314.079L164.302 353.782L258.075 299.651Z" fill="#455A64"/>
<path d="M170.56 357.393L251.818 310.483V332.133L170.56 379.058V357.393Z" fill="#455A64"/>
<g style="mix-blend-mode:multiply">
<path d="M201.817 341.19C201.817 342.184 204.801 341.266 208.473 339.14L220.147 332.392C223.834 330.281 226.818 327.802 226.818 326.747V324.941L201.817 339.385V341.19Z" fill="#263238"/>
</g>
<path d="M170.56 386.264L251.818 339.354V361.004L170.56 407.929V386.264Z" fill="#455A64"/>
<g style="mix-blend-mode:multiply">
<path d="M201.817 370.03C201.817 371.025 204.801 370.107 208.473 367.98L220.147 361.248C223.834 359.121 226.818 356.582 226.818 355.587V353.782L201.817 368.225V370.03Z" fill="#263238"/>
</g>
<path d="M170.56 415.135L251.818 368.225V389.874L170.56 436.799V415.135Z" fill="#455A64"/>
<g style="mix-blend-mode:multiply">
<path d="M201.817 398.901C201.817 399.896 204.801 398.901 208.473 396.851L220.147 390.119C223.834 387.992 226.818 385.529 226.818 384.458V382.653L201.817 397.096V398.901Z" fill="#263238"/>
</g>
<path d="M170.56 455.526L176.802 451.916V440.41L170.56 444.021V455.526Z" fill="#263238"/>
<path d="M245.575 411.539L251.818 407.929V397.096L245.575 400.707V411.539Z" fill="#263238"/>
<path d="M161.364 345.979L198.742 324.36C199.477 323.947 199.477 323.258 198.742 322.83L147.472 293.637C147.059 293.43 146.603 293.322 146.141 293.322C145.679 293.322 145.223 293.43 144.81 293.637L107.768 315.057C107.019 315.47 107.019 316.159 107.768 316.587L158.687 345.994C159.103 346.203 159.562 346.31 160.027 346.307C160.493 346.305 160.951 346.192 161.364 345.979Z" fill="#E0E0E0"/>
<path d="M107.722 314.981L149.797 288.237C150.203 288.023 150.655 287.911 151.113 287.911C151.572 287.911 152.024 288.023 152.429 288.237L167.576 296.989C167.932 297.2 168.196 297.538 168.315 297.934C168.434 298.331 168.399 298.758 168.219 299.131L167.591 300.339C167.409 300.71 167.373 301.136 167.489 301.532C167.605 301.929 167.865 302.267 168.219 302.481L198.742 320.245C198.879 320.32 198.994 320.43 199.074 320.565C199.153 320.7 199.195 320.853 199.195 321.01C199.195 321.166 199.153 321.32 199.074 321.454C198.994 321.589 198.879 321.699 198.742 321.775L161.272 345.903C160.868 346.121 160.416 346.235 159.957 346.235C159.497 346.235 159.045 346.121 158.641 345.903L107.768 316.573C107.607 316.514 107.468 316.408 107.367 316.269C107.267 316.13 107.211 315.964 107.206 315.793C107.201 315.621 107.248 315.452 107.34 315.308C107.432 315.163 107.565 315.049 107.722 314.981Z" fill="#F5F5F5"/>
<path d="M195.406 206.55C195.284 206.46 195.141 206.405 194.99 206.389C194.84 206.372 194.688 206.396 194.55 206.458L193.601 207.009L194.182 267.459C194.207 267.885 194.33 268.298 194.543 268.667C194.755 269.037 195.051 269.351 195.406 269.586L242.729 296.912V233.906L195.406 206.55Z" fill="#37474F"/>
<path opacity="0.2" d="M195.406 206.55C195.284 206.46 195.141 206.405 194.99 206.389C194.84 206.372 194.688 206.396 194.55 206.458L193.601 207.009L194.182 267.459C194.207 267.885 194.33 268.298 194.543 268.667C194.755 269.037 195.051 269.351 195.406 269.586L242.729 296.912V233.906L195.406 206.55Z" fill="black"/>
<path d="M194.489 207.116C193.815 206.734 193.265 207.116 193.265 207.835V268.041C193.289 268.466 193.413 268.88 193.625 269.249C193.838 269.618 194.133 269.933 194.489 270.168L241.812 297.478V234.427L194.489 207.116Z" fill="#37474F"/>
<path opacity="0.5" d="M194.489 207.116C193.815 206.734 193.265 207.116 193.265 207.835V268.041C193.289 268.466 193.413 268.88 193.625 269.249C193.838 269.618 194.133 269.933 194.489 270.168L241.812 297.478V234.427L194.489 207.116Z" fill="black"/>
<path d="M230.183 291.618L195.162 271.391C194.806 271.157 194.511 270.842 194.298 270.473C194.086 270.104 193.962 269.69 193.938 269.265V213.726L189.348 211.109L194.029 208.417H194.121C194.32 208.111 194.703 208.034 195.162 208.294L235.263 231.474V294.525L230.153 297.463L230.183 291.618Z" fill="#EBEBEB"/>
<path d="M190.052 211.293C189.378 210.91 188.828 211.293 188.828 211.997V272.218C188.851 272.641 188.974 273.053 189.187 273.42C189.399 273.787 189.696 274.098 190.052 274.329L230.184 297.508V234.457L190.052 211.293Z" fill="#FAFAFA"/>
<path d="M230.168 234.457L235.263 231.52L235.293 294.571L230.183 297.509L230.168 234.457Z" fill="#E6E6E6"/>
<path d="M228.47 236.171C228.462 236.014 228.431 235.86 228.378 235.712C228.304 235.475 228.172 235.259 227.996 235.084C227.945 235.022 227.883 234.97 227.812 234.931C227.46 234.717 227.154 234.931 227.169 235.421C227.168 235.644 227.22 235.865 227.323 236.064C227.422 236.307 227.592 236.516 227.812 236.66C227.812 236.66 227.812 236.66 227.904 236.66C228.256 236.844 228.47 236.63 228.47 236.171Z" fill="#263238"/>
<path d="M235.585 239.231C236.224 238.895 236.735 238.357 237.038 237.701C237.161 237.387 237.211 237.049 237.185 236.712C237.158 236.376 237.056 236.049 236.885 235.758C236.571 235.249 236.127 234.832 235.6 234.55L235.279 234.366V235.177C235.639 235.305 235.95 235.541 236.171 235.854C236.391 236.166 236.509 236.539 236.509 236.921C236.509 237.303 236.391 237.676 236.171 237.988C235.95 238.301 235.639 238.537 235.279 238.665C234.33 239.146 233.282 239.397 232.219 239.397C231.155 239.397 230.107 239.146 229.159 238.665C228.781 238.512 228.46 238.246 228.238 237.904C228.016 237.562 227.905 237.16 227.919 236.753C227.948 236.374 228.117 236.019 228.394 235.758C228.319 235.521 228.188 235.306 228.011 235.131C227.716 235.403 227.486 235.737 227.338 236.11C227.214 236.422 227.165 236.759 227.194 237.094C227.223 237.429 227.33 237.752 227.506 238.038C227.821 238.56 228.27 238.988 228.807 239.277C229.859 239.808 231.022 240.081 232.201 240.073C233.38 240.065 234.54 239.777 235.585 239.231Z" fill="#263238"/>
<path d="M229.878 240.486L186.395 211.14L187.068 210.758C187.259 210.667 187.468 210.619 187.68 210.619C187.892 210.619 188.101 210.667 188.292 210.758L230.811 239.828L229.878 240.486Z" fill="#37474F"/>
<path opacity="0.2" d="M229.878 240.486L186.395 211.14L187.068 210.758C187.259 210.667 187.468 210.619 187.68 210.619C187.892 210.619 188.101 210.667 188.292 210.758L230.811 239.828L229.878 240.486Z" fill="black"/>
<path d="M187.252 211.293C186.579 210.911 186.028 211.293 186.028 212.012V272.218C186.05 272.643 186.175 273.057 186.39 273.424C186.606 273.792 186.907 274.102 187.267 274.329L230.597 303.965V240.914L187.252 211.293Z" fill="#37474F"/>
<path d="M242.714 233.907L242.73 296.958L230.582 303.965V240.899L242.714 233.907Z" fill="#37474F"/>
<path opacity="0.1" d="M242.714 233.907L242.73 296.958L230.582 303.965V240.899L242.714 233.907Z" fill="black"/>
<path d="M240.297 247.738C240.143 247.448 239.925 247.197 239.66 247.004C239.395 246.81 239.09 246.679 238.767 246.621C238.04 246.54 237.306 246.707 236.686 247.095C235.696 247.735 234.873 248.602 234.285 249.624C233.697 250.646 233.361 251.793 233.305 252.97C233.287 253.573 233.429 254.17 233.718 254.699C233.904 254.998 234.152 255.253 234.444 255.449C234.736 255.645 235.066 255.777 235.413 255.836C235.76 255.896 236.115 255.881 236.456 255.793C236.797 255.705 237.115 255.546 237.39 255.326C238.383 254.692 239.21 253.829 239.801 252.809C240.392 251.79 240.73 250.644 240.786 249.467C240.789 248.865 240.648 248.272 240.373 247.738H240.297Z" fill="#455A64"/>
<path d="M236.977 247.707C238.644 246.743 240.037 247.523 240.037 249.467C239.978 250.521 239.671 251.547 239.139 252.459C238.607 253.371 237.866 254.144 236.977 254.714C235.309 255.694 233.917 254.898 233.917 252.97C233.978 251.915 234.288 250.888 234.819 249.974C235.351 249.06 236.09 248.283 236.977 247.707Z" fill="#F5F5F5"/>
<path d="M236.38 260.773L237.298 260.238C239.134 259.182 240.633 260.039 240.633 262.165V289.491C240.57 290.647 240.235 291.772 239.656 292.774C239.076 293.777 238.268 294.628 237.298 295.259L236.38 295.795C234.544 296.851 233.044 295.994 233.044 293.867V266.541C233.107 265.385 233.442 264.26 234.022 263.258C234.602 262.256 235.409 261.404 236.38 260.773Z" fill="#F5F5F5"/>
<path d="M241.995 233.478L229.908 240.455L230.581 240.898L242.714 233.906L241.995 233.478Z" fill="#37474F"/>
<path opacity="0.2" d="M241.995 233.478L229.908 240.455L230.581 240.898L242.714 233.906L241.995 233.478Z" fill="black"/>
<path d="M227.72 305.036C227.858 304.931 227.97 304.798 228.05 304.644C228.129 304.491 228.173 304.321 228.179 304.149V242.337C228.169 242.15 228.116 241.968 228.023 241.806C227.93 241.644 227.8 241.506 227.644 241.403L182.57 211.981L181.652 212.517V275.553L226.695 304.99C226.849 305.082 227.023 305.134 227.202 305.142C227.381 305.15 227.559 305.113 227.72 305.036Z" fill="#37474F"/>
<path opacity="0.1" d="M227.078 242.337L227.996 241.801C228.091 241.965 228.149 242.148 228.164 242.337V304.149C228.158 304.321 228.114 304.491 228.035 304.644C227.955 304.798 227.843 304.932 227.705 305.036C227.548 305.114 227.375 305.155 227.2 305.155C227.025 305.155 226.852 305.114 226.695 305.036C226.986 305.204 227.231 305.036 227.231 304.73V242.918C227.24 242.713 227.187 242.51 227.078 242.337Z" fill="black"/>
<path opacity="0.5" d="M181.683 212.517L226.695 241.939C226.859 242.032 226.992 242.17 227.078 242.337C227.183 242.496 227.242 242.682 227.246 242.872V304.684C227.246 305.021 227.001 305.159 226.711 304.99L181.683 275.553V212.517Z" fill="black"/>
<path opacity="0.2" d="M181.683 212.517L182.601 211.981L227.629 241.403C227.781 241.505 227.907 241.641 227.996 241.801L227.078 242.337C226.992 242.17 226.859 242.031 226.695 241.939L181.683 212.517Z" fill="black"/>
<path d="M182.417 212.93L182.432 275.982L170.284 283.004L170.407 219.877L182.417 212.93Z" fill="#37474F"/>
<path opacity="0.7" d="M182.417 212.93L182.432 275.982L170.284 283.004L170.407 219.877L182.417 212.93Z" fill="black"/>
<path d="M220.82 308.234C221.027 308.334 221.255 308.386 221.485 308.386C221.716 308.386 221.943 308.334 222.151 308.234L224.614 306.811C224.803 306.681 224.96 306.51 225.074 306.312C225.188 306.113 225.255 305.892 225.272 305.663V244.142C225.254 243.912 225.183 243.69 225.067 243.491C224.95 243.292 224.79 243.123 224.599 242.994L185.217 218.79L181.422 220.978V284.029L220.82 308.234Z" fill="#EBEBEB"/>
<path d="M181.438 283.999L220.82 308.234C221.187 308.448 221.478 308.234 221.478 307.851V246.33C221.462 246.098 221.392 245.872 221.276 245.671C221.159 245.469 220.998 245.297 220.805 245.167L181.407 220.932L181.438 283.999Z" fill="#FAFAFA"/>
<path d="M184.329 225.262C184.321 225.105 184.29 224.951 184.237 224.803C184.167 224.567 184.041 224.352 183.87 224.176L183.671 224.023C183.32 223.809 183.029 224.023 183.029 224.512C183.032 224.735 183.085 224.954 183.182 225.155C183.286 225.4 183.462 225.608 183.687 225.752C184.1 225.92 184.329 225.721 184.329 225.262Z" fill="#263238"/>
<path d="M221.279 245.688L225.089 243.484C225.21 243.689 225.278 243.92 225.287 244.158V305.664C225.269 305.893 225.199 306.116 225.082 306.314C224.966 306.513 224.806 306.683 224.614 306.811L222.151 308.234C221.97 308.314 221.775 308.355 221.577 308.355C221.38 308.355 221.184 308.314 221.003 308.234C221.279 308.31 221.478 308.142 221.478 307.775V246.33C221.474 246.101 221.405 245.878 221.279 245.688Z" fill="#E6E6E6"/>
<path d="M175.501 222.141C175.524 222.626 175.679 223.096 175.948 223.501C176.218 223.905 176.592 224.228 177.031 224.436C179.132 225.41 181.516 225.579 183.733 224.91L183.396 224.053C181.438 224.632 179.338 224.491 177.475 223.656C177.116 223.471 176.814 223.19 176.603 222.845C176.471 222.635 176.407 222.389 176.419 222.141C176.419 221.299 177.23 220.366 178.561 219.647C179.809 218.965 181.192 218.572 182.612 218.495C184.031 218.418 185.449 218.66 186.762 219.203C187.189 219.426 187.532 219.78 187.741 220.213L188.721 220.795V220.718C188.719 220.316 188.614 219.92 188.415 219.571C188.117 219.085 187.694 218.689 187.191 218.423C185.746 217.797 184.177 217.51 182.605 217.585C181.032 217.659 179.497 218.092 178.118 218.851C177.433 219.125 176.832 219.572 176.373 220.149C175.914 220.726 175.614 221.412 175.501 222.141Z" fill="#263238"/>
<path d="M219.994 309.489C220.137 309.389 220.255 309.257 220.338 309.102C220.42 308.948 220.465 308.776 220.468 308.601V246.789C220.458 246.603 220.404 246.421 220.311 246.259C220.218 246.097 220.088 245.959 219.932 245.856L170.544 218.959L169.626 219.494V282.53L219.03 309.443C219.175 309.527 219.338 309.574 219.506 309.582C219.674 309.59 219.841 309.558 219.994 309.489Z" fill="#37474F"/>
<path opacity="0.1" d="M219.366 246.789L220.284 246.269C220.377 246.427 220.429 246.606 220.437 246.789V308.601C220.464 308.789 220.433 308.98 220.348 309.15C220.264 309.319 220.129 309.459 219.963 309.55C219.797 309.642 219.607 309.68 219.418 309.661C219.23 309.642 219.051 309.565 218.907 309.442C219.198 309.611 219.443 309.442 219.443 309.136V247.324C219.459 247.142 219.432 246.959 219.366 246.789Z" fill="black"/>
<path d="M169.595 219.494L218.984 246.33C219.143 246.43 219.274 246.567 219.368 246.73C219.461 246.892 219.513 247.076 219.519 247.263V309.075C219.519 309.412 219.274 309.549 218.984 309.381L169.58 282.468L169.595 219.494Z" fill="#37474F"/>
<path opacity="0.2" d="M169.595 219.494L170.513 218.959L219.902 245.856C220.063 245.958 220.195 246.101 220.284 246.269L219.366 246.789C219.271 246.629 219.14 246.492 218.984 246.392L169.595 219.494Z" fill="black"/>
<path d="M181.683 212.517L169.611 219.494L170.406 219.876L182.417 212.93L181.683 212.517Z" fill="#37474F"/>
<path opacity="0.2" d="M181.683 212.517L169.611 219.494L170.406 219.876L182.417 212.93L181.683 212.517Z" fill="black"/>
<path d="M170.33 221.1C170.2 221.024 170.052 220.983 169.901 220.983C169.751 220.983 169.603 221.024 169.473 221.1L168.524 221.636L169.106 282.102C169.129 282.525 169.252 282.937 169.465 283.304C169.678 283.671 169.974 283.982 170.33 284.213L217.653 311.539V248.411L170.33 221.1Z" fill="#37474F"/>
<path opacity="0.2" d="M170.33 221.1C170.2 221.024 170.052 220.983 169.901 220.983C169.751 220.983 169.603 221.024 169.473 221.1L168.524 221.636L169.106 282.102C169.129 282.525 169.252 282.937 169.465 283.304C169.678 283.671 169.974 283.982 170.33 284.213L217.653 311.539V248.411L170.33 221.1Z" fill="black"/>
<path d="M169.35 221.636C168.677 221.238 168.126 221.559 168.126 222.34V282.545C168.149 282.971 168.271 283.385 168.484 283.755C168.696 284.125 168.993 284.439 169.35 284.672L216.673 311.998V248.946L169.35 221.636Z" fill="#37474F"/>
<path opacity="0.5" d="M169.35 221.636C168.677 221.238 168.126 221.559 168.126 222.34V282.545C168.149 282.971 168.271 283.385 168.484 283.755C168.696 284.125 168.993 284.439 169.35 284.672L216.673 311.998V248.946L169.35 221.636Z" fill="black"/>
<path d="M205.046 306.138L170.024 285.896C169.666 285.664 169.368 285.35 169.156 284.98C168.943 284.61 168.821 284.195 168.8 283.769V228.246L164.21 225.629L168.892 222.921C168.954 222.845 169.031 222.781 169.117 222.735C169.204 222.688 169.299 222.659 169.397 222.649C169.495 222.639 169.595 222.648 169.689 222.677C169.783 222.705 169.871 222.752 169.947 222.814L210.11 246.024V309.06L205 312.013L205.046 306.138Z" fill="#EBEBEB"/>
<path d="M164.913 225.812C164.24 225.415 163.689 225.736 163.689 226.516V286.722C163.714 287.147 163.837 287.561 164.05 287.93C164.262 288.299 164.558 288.614 164.913 288.848L205.045 312.028V248.977L164.913 225.812Z" fill="#FAFAFA"/>
<path d="M205.03 248.977L210.125 246.024L210.156 309.075L205.046 312.028L205.03 248.977Z" fill="#E6E6E6"/>
<path d="M203.363 250.691C203.353 250.529 203.322 250.37 203.271 250.216C203.194 249.985 203.063 249.775 202.888 249.604C202.842 249.538 202.779 249.485 202.705 249.451C202.353 249.237 202.047 249.451 202.062 249.941C202.061 250.164 202.114 250.385 202.215 250.584C202.318 250.825 202.488 251.032 202.705 251.18H202.796C203.118 251.349 203.363 251.15 203.363 250.691Z" fill="#263238"/>
<path d="M210.447 253.736C211.09 253.404 211.602 252.865 211.9 252.206C212.023 251.894 212.073 251.558 212.046 251.224C212.02 250.89 211.918 250.566 211.747 250.278C211.437 249.765 210.992 249.347 210.462 249.069C210.36 248.999 210.253 248.937 210.141 248.885V249.681C210.501 249.809 210.812 250.046 211.033 250.358C211.253 250.67 211.371 251.043 211.371 251.425C211.371 251.807 211.253 252.18 211.033 252.493C210.812 252.805 210.501 253.041 210.141 253.169C209.194 253.655 208.145 253.909 207.081 253.909C206.016 253.909 204.967 253.655 204.021 253.169C203.643 253.016 203.322 252.75 203.1 252.408C202.878 252.066 202.767 251.664 202.781 251.257C202.818 250.88 202.986 250.528 203.256 250.262C203.179 250.031 203.048 249.821 202.873 249.65C202.575 249.92 202.345 250.255 202.2 250.63C202.106 250.934 202.081 251.254 202.126 251.569C202.171 251.884 202.285 252.185 202.46 252.45C202.775 252.968 203.225 253.391 203.76 253.674C204.79 254.214 205.934 254.501 207.096 254.512C208.259 254.523 209.407 254.256 210.447 253.736Z" fill="#263238"/>
<path d="M204.74 255.005L161.257 225.721L161.931 225.338C162.12 225.24 162.33 225.189 162.543 225.189C162.756 225.189 162.965 225.24 163.155 225.338L205.673 254.408L204.74 255.005Z" fill="#37474F"/>
<path opacity="0.2" d="M204.74 255.005L161.257 225.721L161.931 225.338C162.12 225.24 162.33 225.189 162.543 225.189C162.756 225.189 162.965 225.24 163.155 225.338L205.673 254.408L204.74 255.005Z" fill="black"/>
<path d="M162.114 225.812C161.44 225.415 160.89 225.736 160.89 226.516V286.722C160.912 287.148 161.034 287.562 161.247 287.932C161.46 288.301 161.757 288.615 162.114 288.848L205.52 318.469V255.418L162.114 225.812Z" fill="#37474F"/>
<path d="M217.576 248.411L217.592 311.462L205.443 318.485V255.418L217.576 248.411Z" fill="#37474F"/>
<path opacity="0.1" d="M217.576 248.411L217.592 311.462L205.443 318.485V255.418L217.576 248.411Z" fill="black"/>
<path d="M215.159 262.242C215.004 261.955 214.785 261.707 214.52 261.516C214.255 261.325 213.951 261.197 213.629 261.141C212.901 261.052 212.165 261.22 211.548 261.615C210.559 262.252 209.735 263.116 209.147 264.135C208.559 265.155 208.223 266.3 208.167 267.475C208.136 268.103 208.279 268.728 208.58 269.28C208.768 269.577 209.016 269.831 209.308 270.025C209.6 270.22 209.93 270.351 210.276 270.41C210.622 270.469 210.977 270.455 211.317 270.369C211.658 270.282 211.976 270.125 212.252 269.908C213.245 269.27 214.072 268.404 214.663 267.382C215.254 266.36 215.591 265.212 215.648 264.033C215.654 263.429 215.507 262.834 215.22 262.304L215.159 262.242Z" fill="#455A64"/>
<path d="M211.839 262.227C213.507 261.263 214.899 262.043 214.899 263.986C214.841 265.041 214.533 266.066 214.001 266.979C213.469 267.891 212.728 268.664 211.839 269.234C210.171 270.198 208.779 269.418 208.779 267.49C208.838 266.434 209.146 265.406 209.678 264.492C210.21 263.577 210.95 262.801 211.839 262.227Z" fill="#F5F5F5"/>
<path d="M211.242 275.278L212.16 274.757C213.996 273.686 215.496 274.559 215.496 276.67V303.996C215.431 305.154 215.096 306.28 214.517 307.285C213.937 308.289 213.13 309.144 212.16 309.779L211.242 310.299C209.406 311.37 207.907 310.498 207.907 308.387V281.061C207.971 279.903 208.306 278.777 208.886 277.772C209.465 276.768 210.272 275.913 211.242 275.278Z" fill="#F5F5F5"/>
<path d="M216.857 247.983L204.77 254.96L205.443 255.419L217.576 248.411L216.857 247.983Z" fill="#37474F"/>
<path opacity="0.2" d="M216.857 247.983L204.77 254.96L205.443 255.419L217.576 248.411L216.857 247.983Z" fill="black"/>
<path d="M557.603 231.703L551.56 220.32L556.425 206.29V197.706L541.554 206.29V214.888L547.949 225.95C548.043 226.127 548.194 226.267 548.377 226.348L557.603 231.703Z" fill="#37474F"/>
<path opacity="0.2" d="M557.603 231.703L551.56 220.32L556.425 206.29V197.706L541.554 206.29V214.888L547.949 225.95C548.043 226.127 548.194 226.267 548.377 226.348L557.603 231.703Z" fill="black"/>
<path d="M593.115 129.484C593.018 127.948 592.563 126.457 591.788 125.129C591.012 123.801 589.937 122.672 588.647 121.834L584.96 119.676C583.578 118.975 582.05 118.609 580.5 118.609C578.95 118.609 577.422 118.975 576.04 119.676L520.379 151.806C519.089 152.645 518.014 153.774 517.238 155.102C516.463 156.43 516.008 157.921 515.911 159.456V220.656C516.008 222.191 516.463 223.682 517.238 225.011C518.014 226.339 519.089 227.467 520.379 228.306L524.005 230.402C525.387 231.104 526.915 231.469 528.465 231.469C530.015 231.469 531.543 231.104 532.925 230.402L550.826 220.06L557.206 231.106C557.295 231.267 557.428 231.399 557.591 231.485C557.753 231.572 557.937 231.609 558.12 231.593C558.303 231.577 558.478 231.508 558.622 231.394C558.767 231.28 558.876 231.127 558.935 230.953L565.667 211.476L588.617 198.211C589.906 197.372 590.982 196.244 591.757 194.916C592.533 193.587 592.987 192.096 593.084 190.561L593.115 129.484Z" fill="#37474F"/>
<path opacity="0.2" d="M515.973 220.84C516.07 222.375 516.524 223.866 517.3 225.195C518.075 226.523 519.151 227.651 520.44 228.49L524.066 230.586C525.323 231.217 526.7 231.576 528.105 231.639C529.51 231.703 530.913 231.469 532.221 230.954C530.125 231.749 528.519 230.556 528.519 228.016V166.77C528.579 165.219 529.032 163.708 529.834 162.379L517.288 155.142C516.481 156.469 516.027 157.981 515.973 159.533V220.84Z" fill="black"/>
<path opacity="0.3" d="M592.962 128.229C592.442 126.332 590.713 125.735 588.663 126.913L532.94 159.12C531.611 159.931 530.523 161.082 529.789 162.455L517.258 155.203C518.001 153.845 519.081 152.702 520.394 151.883L576.056 119.753C577.438 119.051 578.966 118.686 580.516 118.686C582.066 118.686 583.594 119.051 584.976 119.753L588.617 121.849C589.734 122.564 590.695 123.499 591.442 124.595C592.188 125.691 592.706 126.928 592.962 128.229Z" fill="white"/>
<path d="M566.906 172.232C566.83 172.216 566.752 172.216 566.676 172.232L563.54 171.972C563.469 171.976 563.398 171.965 563.331 171.941C563.265 171.917 563.204 171.879 563.152 171.83C563.101 171.782 563.059 171.723 563.031 171.658C563.003 171.593 562.989 171.522 562.989 171.451C562.989 170.946 563.066 170.442 563.066 169.921C563.066 169.401 563.066 168.85 563.066 168.391C563.066 168.048 563.191 167.717 563.418 167.458L566.982 163.128C567.087 163.009 567.162 162.866 567.199 162.711C567.237 162.556 567.236 162.395 567.197 162.241L565.498 158.477C565.481 158.432 565.448 158.394 565.406 158.37C565.269 158.37 565.055 158.37 564.856 158.538L561.046 162.027C560.943 162.143 560.803 162.221 560.65 162.246C560.496 162.271 560.339 162.242 560.204 162.164C559.719 161.762 559.171 161.441 558.583 161.216C558.451 161.165 558.341 161.07 558.271 160.947C558.202 160.825 558.177 160.682 558.2 160.542L559.378 155.203C559.396 155.132 559.39 155.056 559.359 154.989C559.328 154.923 559.276 154.868 559.21 154.836C559.096 154.795 558.972 154.795 558.858 154.836L555.125 155.203C554.952 155.218 554.786 155.279 554.644 155.378C554.502 155.477 554.388 155.612 554.314 155.769L552.279 161.2C552.106 161.546 551.82 161.821 551.468 161.981C550.665 162.369 549.892 162.819 549.158 163.327C548.852 163.526 548.5 163.541 548.362 163.327L546.45 160.405C546.312 160.206 546.006 160.252 545.761 160.497L541.661 164.826C541.545 164.944 541.456 165.086 541.4 165.242C541.345 165.398 541.324 165.564 541.34 165.729L542.487 169.585C542.537 169.91 542.466 170.242 542.288 170.518C541.595 171.573 540.961 172.666 540.391 173.792C540.187 174.114 539.871 174.349 539.504 174.45L536 175.307C535.826 175.349 535.664 175.43 535.526 175.544C535.388 175.658 535.278 175.802 535.204 175.965L533.445 181.901C533.424 181.966 533.42 182.035 533.433 182.101C533.445 182.168 533.474 182.23 533.516 182.283C533.559 182.336 533.613 182.378 533.676 182.405C533.738 182.431 533.806 182.442 533.873 182.437L537.086 182.62C537.156 182.618 537.225 182.63 537.29 182.656C537.355 182.681 537.414 182.719 537.464 182.767C537.514 182.816 537.554 182.874 537.581 182.938C537.608 183.002 537.622 183.071 537.622 183.141C537.531 184.159 537.531 185.183 537.622 186.201C537.62 186.546 537.501 186.88 537.285 187.149L533.705 191.479C533.6 191.598 533.525 191.742 533.488 191.896C533.451 192.051 533.452 192.212 533.491 192.366L535.189 196.115C535.207 196.168 535.246 196.212 535.296 196.237H535.418C535.574 196.217 535.719 196.147 535.832 196.038L539.641 192.55C539.744 192.434 539.884 192.356 540.037 192.331C540.191 192.306 540.348 192.335 540.483 192.412C540.971 192.81 541.518 193.13 542.105 193.361C542.238 193.409 542.35 193.504 542.42 193.627C542.49 193.751 542.514 193.895 542.487 194.034L541.309 199.374C541.292 199.443 541.298 199.516 541.325 199.583C541.353 199.649 541.401 199.704 541.462 199.741C541.576 199.782 541.7 199.782 541.814 199.741L545.547 199.374C545.719 199.356 545.884 199.294 546.025 199.195C546.167 199.096 546.282 198.963 546.358 198.808L548.393 193.376C548.57 193.034 548.855 192.759 549.204 192.596C549.607 192.408 550.001 192.199 550.382 191.969C550.764 191.754 551.132 191.51 551.514 191.25C551.897 190.989 552.172 191.035 552.31 191.25L554.222 194.172H554.314C554.467 194.279 554.712 194.172 554.911 194.004L558.95 189.72C559.067 189.603 559.156 189.461 559.209 189.304C559.262 189.148 559.278 188.981 559.256 188.817L558.124 184.961C558.072 184.634 558.149 184.3 558.338 184.028C559.035 182.978 559.664 181.885 560.22 180.754C560.423 180.432 560.74 180.197 561.107 180.096L564.611 179.239C564.787 179.203 564.952 179.124 565.091 179.009C565.229 178.894 565.338 178.748 565.406 178.581L567.166 172.645C567.181 172.556 567.162 172.465 567.115 172.389C567.067 172.313 566.992 172.257 566.906 172.232ZM548.24 186.736H548.041H547.888H547.551H547.169H546.71C545.956 186.743 545.218 186.521 544.593 186.101C543.968 185.68 543.484 185.08 543.206 184.38C542.928 183.76 542.752 183.098 542.686 182.421C542.663 182.06 542.663 181.697 542.686 181.335C542.906 177.367 544.534 173.608 547.276 170.732C548.101 169.838 549.049 169.066 550.091 168.437C550.412 168.254 550.734 168.085 551.04 167.948C551.868 167.564 552.774 167.376 553.687 167.397H553.977H554.13C554.779 167.493 555.391 167.756 555.906 168.162C556.421 168.567 556.822 169.1 557.068 169.707C558.598 173.211 556.823 179.331 553.013 183.355C551.771 184.907 550.117 186.079 548.24 186.736Z" fill="#EDE9F2"/>
<path d="M589.32 180.54H589.137L586.719 180.402C586.667 180.406 586.614 180.399 586.564 180.382C586.514 180.365 586.468 180.337 586.429 180.301C586.39 180.265 586.359 180.222 586.338 180.173C586.317 180.125 586.306 180.072 586.306 180.019C586.306 179.637 586.306 179.254 586.306 178.887C586.33 178.485 586.33 178.081 586.306 177.679C586.309 177.416 586.401 177.163 586.566 176.959L589.29 173.67C589.37 173.58 589.426 173.471 589.452 173.353C589.479 173.235 589.476 173.113 589.443 172.997L588.158 170.151L588.081 170.059C587.974 170.059 587.821 170.059 587.668 170.182L584.746 172.89C584.665 172.976 584.559 173.033 584.442 173.052C584.326 173.072 584.207 173.052 584.103 172.997C583.738 172.691 583.324 172.448 582.879 172.278C582.78 172.24 582.696 172.169 582.643 172.077C582.59 171.985 582.571 171.878 582.588 171.773L583.476 167.718C583.488 167.663 583.482 167.606 583.46 167.554C583.438 167.502 583.401 167.458 583.353 167.428C583.262 167.41 583.169 167.41 583.078 167.428L580.247 167.718C580.118 167.733 579.994 167.78 579.887 167.854C579.78 167.929 579.693 168.03 579.635 168.147L578.105 172.262C577.969 172.526 577.748 172.736 577.478 172.859C576.871 173.149 576.288 173.487 575.734 173.869C575.489 174.037 575.229 174.037 575.122 173.869L573.668 171.666C573.577 171.497 573.332 171.543 573.148 171.666L570.088 174.955C570.001 175.043 569.934 175.149 569.892 175.265C569.85 175.381 569.833 175.505 569.843 175.628L570.716 178.566C570.751 178.811 570.697 179.061 570.563 179.27C570.034 180.066 569.553 180.894 569.124 181.748C568.976 181.999 568.733 182.181 568.451 182.253L565.789 182.896C565.659 182.927 565.538 182.988 565.435 183.072C565.331 183.157 565.248 183.264 565.192 183.385L563.846 187.975C563.831 188.026 563.828 188.079 563.838 188.131C563.848 188.182 563.871 188.231 563.904 188.272C563.937 188.312 563.98 188.344 564.029 188.365C564.077 188.385 564.13 188.393 564.182 188.389L566.615 188.526C566.668 188.522 566.721 188.529 566.771 188.546C566.821 188.563 566.867 188.591 566.906 188.627C566.944 188.663 566.975 188.706 566.996 188.755C567.018 188.803 567.028 188.856 567.028 188.909C566.96 189.688 566.96 190.471 567.028 191.25C567.033 191.513 566.94 191.769 566.768 191.969L564.06 195.258C563.979 195.348 563.921 195.456 563.891 195.574C563.862 195.691 563.862 195.814 563.892 195.931L565.177 198.777L565.253 198.854H565.376C565.495 198.843 565.607 198.795 565.697 198.716L568.589 196.069C568.665 195.982 568.769 195.924 568.883 195.904C568.998 195.885 569.115 195.905 569.216 195.962C569.589 196.265 570.007 196.508 570.455 196.681C570.555 196.719 570.638 196.79 570.691 196.882C570.744 196.974 570.764 197.081 570.746 197.186L569.843 201.241C569.835 201.293 569.842 201.348 569.864 201.397C569.885 201.445 569.921 201.487 569.966 201.516C570.051 201.542 570.141 201.542 570.226 201.516L573.056 201.225C573.186 201.211 573.31 201.164 573.417 201.089C573.524 201.014 573.61 200.914 573.668 200.797L575.198 196.681C575.328 196.418 575.544 196.208 575.81 196.084C576.116 195.947 576.407 195.778 576.713 195.61L577.57 195.075C577.799 194.906 578.075 194.891 578.167 195.075L579.62 197.278C579.637 197.31 579.664 197.337 579.697 197.354C579.776 197.381 579.861 197.382 579.941 197.357C580.02 197.332 580.09 197.283 580.14 197.217L583.2 193.927C583.287 193.839 583.354 193.734 583.396 193.617C583.439 193.501 583.455 193.377 583.445 193.254L582.573 190.316C582.543 190.069 582.603 189.819 582.741 189.613C583.271 188.819 583.746 187.991 584.164 187.134C584.317 186.886 584.557 186.706 584.837 186.629L587.5 185.986C587.633 185.957 587.756 185.895 587.86 185.808C587.964 185.72 588.045 185.608 588.096 185.482L589.443 180.983C589.469 180.948 589.488 180.907 589.496 180.863C589.504 180.819 589.502 180.774 589.491 180.731C589.479 180.689 589.457 180.649 589.428 180.616C589.398 180.583 589.361 180.557 589.32 180.54ZM575.122 191.54H574.969H574.862H574.602H574.311H574.051C573.478 191.549 572.916 191.382 572.44 191.062C571.964 190.742 571.597 190.284 571.389 189.75C571.169 189.267 571.034 188.749 570.991 188.22C570.975 187.95 570.975 187.679 570.991 187.409C571.161 184.392 572.41 181.536 574.51 179.362C575.134 178.678 575.856 178.09 576.652 177.617C576.869 177.562 577.089 177.516 577.31 177.48C577.943 177.191 578.634 177.049 579.329 177.067H579.666C580.158 177.139 580.622 177.34 581.011 177.649C581.401 177.958 581.702 178.364 581.885 178.826C583.078 181.473 581.701 186.109 578.825 189.169C577.839 190.307 576.557 191.149 575.122 191.602V191.54Z" fill="#EDE9F2"/>
<path d="M365.237 344.327L355.812 338.987C354.152 338.039 352.771 336.67 351.809 335.018C350.847 333.366 350.339 331.489 350.334 329.578V279.792H355.338V329.578C355.334 330.607 355.604 331.618 356.12 332.508C356.637 333.398 357.38 334.134 358.275 334.642L367.7 339.997L365.237 344.327Z" fill="#263238"/>
<path d="M337.314 297.968C336.493 297.409 335.814 296.666 335.333 295.796C334.852 294.927 334.582 293.957 334.545 292.965V248.595C334.596 247.596 334.905 246.627 335.441 245.782C335.977 244.938 336.722 244.246 337.605 243.775L386.687 221.101C387.619 220.718 388.621 220.535 389.627 220.564C390.634 220.593 391.624 220.833 392.532 221.269C393.354 221.827 394.032 222.571 394.513 223.44C394.994 224.309 395.264 225.279 395.301 226.272V270.642C395.25 271.641 394.942 272.61 394.405 273.454C393.869 274.299 393.124 274.99 392.241 275.461L343.22 298.136C342.28 298.528 341.267 298.715 340.249 298.686C339.231 298.657 338.231 298.412 337.314 297.968Z" fill="#455A64"/>
<path d="M345.592 251.594L335.478 245.749C334.908 246.598 334.585 247.588 334.545 248.61V292.98C334.582 293.973 334.852 294.943 335.333 295.812C335.814 296.681 336.493 297.425 337.314 297.983C338.222 298.419 339.212 298.659 340.219 298.688C341.225 298.717 342.227 298.534 343.159 298.151L345.592 297.019V251.594Z" fill="#263238"/>
<path d="M343.22 246.973L392.18 224.313C392.503 224.108 392.879 223.999 393.262 224C393.645 224.002 394.02 224.113 394.342 224.32C394.664 224.528 394.92 224.824 395.079 225.172C395.238 225.521 395.294 225.908 395.24 226.287V270.657C395.189 271.656 394.88 272.625 394.344 273.47C393.808 274.314 393.062 275.006 392.18 275.477L343.22 298.136C342.895 298.335 342.521 298.438 342.141 298.434C341.76 298.43 341.389 298.318 341.069 298.112C340.749 297.906 340.494 297.613 340.333 297.268C340.172 296.923 340.112 296.54 340.16 296.162V251.792C340.214 250.794 340.524 249.826 341.06 248.982C341.595 248.138 342.339 247.446 343.22 246.973Z" fill="#37474F"/>
<path d="M353.93 347.188V430.45C353.91 430.835 353.8 431.21 353.609 431.545C353.417 431.88 353.15 432.165 352.828 432.378L349.86 434.092C349.516 434.265 349.136 434.356 348.751 434.356C348.366 434.356 347.986 434.265 347.642 434.092L344.75 432.378C344.428 432.165 344.161 431.88 343.97 431.545C343.778 431.21 343.668 430.835 343.648 430.45V347.188C343.648 346.198 344.042 345.248 344.742 344.548C345.442 343.848 346.392 343.454 347.382 343.454H350.258C351.238 343.47 352.171 343.871 352.858 344.569C353.545 345.268 353.93 346.208 353.93 347.188Z" fill="#263238"/>
<path d="M346.28 343.454C346.966 343.454 347.623 343.727 348.108 344.212C348.593 344.697 348.866 345.354 348.866 346.04V433.602C348.866 434.214 348.437 434.474 347.902 434.168L344.75 432.347C344.443 432.145 344.188 431.874 344.004 431.555C343.821 431.236 343.715 430.879 343.694 430.511V346.04C343.694 345.354 343.967 344.697 344.452 344.212C344.937 343.727 345.594 343.454 346.28 343.454Z" fill="#37474F"/>
<path d="M410.05 376.38V462.06C410.03 462.443 409.92 462.816 409.729 463.148C409.537 463.481 409.27 463.763 408.949 463.972L405.95 465.778C405.606 465.951 405.226 466.042 404.841 466.042C404.455 466.042 404.075 465.951 403.731 465.778L400.763 464.064C400.442 463.855 400.174 463.572 399.983 463.24C399.792 462.908 399.681 462.535 399.662 462.152V376.38C399.662 376.042 399.795 375.717 400.033 375.476C400.27 375.236 400.593 375.099 400.932 375.095H408.75C408.92 375.093 409.089 375.124 409.246 375.188C409.404 375.252 409.548 375.346 409.668 375.466C409.789 375.585 409.885 375.728 409.951 375.885C410.017 376.041 410.05 376.21 410.05 376.38Z" fill="#263238"/>
<path d="M400.962 375.141H403.594C403.932 375.145 404.255 375.282 404.493 375.522C404.73 375.763 404.864 376.088 404.864 376.426V465.166C404.864 465.87 404.374 466.145 403.762 465.793L400.794 464.08C400.473 463.87 400.205 463.588 400.014 463.255C399.822 462.923 399.712 462.55 399.692 462.167V376.38C399.704 376.05 399.843 375.737 400.079 375.506C400.316 375.275 400.632 375.144 400.962 375.141Z" fill="#37474F"/>
<path d="M343.633 345.413V346.561C343.688 347.602 343.962 348.619 344.437 349.547C344.911 350.475 345.576 351.292 346.387 351.946L402.11 390.808C402.952 391.353 403.923 391.666 404.924 391.717C405.926 391.768 406.924 391.555 407.817 391.099L477.86 350.615C478.721 350.061 479.438 349.31 479.951 348.424C480.465 347.538 480.76 346.543 480.813 345.52V344.342C480.766 343.34 480.459 342.368 479.923 341.52C479.386 340.672 478.639 339.979 477.753 339.507L408.842 307.53C407.874 307.151 406.837 306.979 405.798 307.026C404.76 307.074 403.743 307.339 402.814 307.806L346.571 340.303C345.715 340.865 345.003 341.62 344.493 342.508C343.983 343.396 343.688 344.391 343.633 345.413Z" fill="#37474F"/>
<path d="M346.571 340.303L402.89 307.806C403.819 307.339 404.836 307.074 405.875 307.026C406.913 306.979 407.95 307.151 408.918 307.53L477.86 339.507C479.574 340.303 479.635 341.695 477.998 342.567L407.817 383.112C406.924 383.571 405.926 383.786 404.924 383.735C403.922 383.684 402.951 383.369 402.11 382.822L346.387 344.006C346.045 343.822 345.761 343.546 345.57 343.208C345.378 342.87 345.287 342.484 345.306 342.096C345.325 341.708 345.455 341.334 345.678 341.016C345.902 340.699 346.212 340.451 346.571 340.303Z" fill="#455A64"/>
<path d="M427.125 494.695H441.599V469.909H427.125V494.695Z" fill="#FFA8A7"/>
<path d="M469.047 463.865L483.521 464.355L484.255 438.115L469.781 437.626L469.047 463.865Z" fill="#FFA8A7"/>
<path d="M441.599 488.177V485.607C443.129 486.264 449.953 500.754 456.195 506.445C461.168 511.035 469.965 517.155 469.674 521.47C469.399 527.008 461.504 529.472 454.68 527.865C449.356 526.611 441.752 523.382 438.095 519.45C434.439 515.518 433.26 510.27 431.363 507.746C429.466 505.221 425.06 502.299 424.035 499.315C423.468 497.678 424.142 494.083 424.937 491.053C425.656 488.269 426.467 485.209 427.401 485.469V487.182C428.548 488.452 431.7 489.707 435.265 489.845C437.575 489.936 441.614 489.936 441.599 488.177Z" fill="#263238"/>
<path d="M483.674 459.887C484.424 459.887 485.036 460.973 486.734 462.779C488.738 464.936 493.221 467.216 496.45 468.822C501.881 471.546 516.064 475.187 520.838 477.329C523.821 478.675 523.072 483.311 518.849 485.912C515.697 487.855 505.66 489.722 496.725 487.733C491.86 486.631 484.485 483.265 480.844 482.699C476.866 482.072 469.568 481.307 466.615 479.272C463.662 477.237 464.84 472.877 465.681 469.128C466.584 465.043 467.9 458.785 469.246 459.061V460.346C470.99 462.993 479.849 464.064 483.674 462.121V459.887Z" fill="#263238"/>
<path d="M368.786 319.128C365.619 341.512 369.888 345.811 391.155 367.246C402.599 378.767 421.021 395.674 421.021 395.674C421.021 395.674 420.76 402.819 420.607 418.853C420.47 432.96 426.376 478.906 426.376 478.906C426.376 478.906 435.984 482.945 442.578 478.753C442.578 478.753 445.562 444.572 447.168 426.733C449.356 402.589 450.488 390.487 449.264 385.285C448.178 380.695 426.529 353.384 421.525 345.704L467.533 372.433C466.639 379.205 466.189 386.028 466.186 392.858C466.691 412.029 469.047 450.295 469.047 450.295C469.047 450.295 479.589 455.007 484.806 450.937C484.806 450.937 498.071 367.246 498.071 360.377C498.071 349.942 452.737 318.791 444.154 311.524C439.258 307.393 433.796 302.971 433.796 302.971L368.786 319.128Z" fill="#37474F"/>
<path opacity="0.3" d="M368.786 319.128C365.619 341.512 369.888 345.811 391.155 367.246C402.599 378.767 421.021 395.674 421.021 395.674C421.021 395.674 420.76 402.819 420.607 418.853C420.47 432.96 426.376 478.906 426.376 478.906C426.376 478.906 435.984 482.945 442.578 478.753C442.578 478.753 445.562 444.572 447.168 426.733C449.356 402.589 450.488 390.487 449.264 385.285C448.178 380.695 426.529 353.384 421.525 345.704L467.533 372.433C466.639 379.205 466.189 386.028 466.186 392.858C466.691 412.029 469.047 450.295 469.047 450.295C469.047 450.295 479.589 455.007 484.806 450.937C484.806 450.937 498.071 367.246 498.071 360.377C498.071 349.942 452.737 318.791 444.154 311.524C439.258 307.393 433.796 302.971 433.796 302.971L368.786 319.128Z" fill="black"/>
<path opacity="0.1" d="M421.525 345.78C426.371 341.872 430.015 336.674 432.036 330.786C431.79 334.627 431.242 338.444 430.399 342.2C429.16 347.172 467.533 372.509 467.533 372.509L421.525 345.78Z" fill="black"/>
<path d="M448.178 267.123C448.178 267.123 450.718 244.295 450.718 235.941C450.718 226.991 446.939 221.697 435.311 221.437C435.311 221.437 426.865 279.21 431.44 283.57C433.949 285.957 444.904 289.553 455.798 292.75L461.811 275.4C457.71 272.952 453.181 270.198 448.178 267.123Z" fill="#FFA8A7"/>
<path d="M433.49 220.58C433.49 220.58 443.098 220.825 447.367 224.91C451.636 228.995 451.743 232.484 451.299 240.026C450.856 247.569 449.356 267.138 449.356 267.138C449.356 267.138 442.135 273.962 425.917 273.258L433.49 220.58Z" fill="#E0E0E0"/>
<path d="M387.04 233.57C383.597 238.741 373.423 264.843 368.419 321.637C378.579 332.683 428.61 335.116 444.154 311.569C444.154 311.569 449.387 264.384 449.28 253.108C449.203 245.29 448.989 226.41 435.311 221.437H417.395L396.969 224.91C392.973 226.9 389.554 229.882 387.04 233.57Z" fill="#F5F5F5"/>
<path d="M416.201 175.95C416.009 180.012 417.026 184.04 419.123 187.525C421.22 191.01 424.304 193.794 427.983 195.526C431.663 197.258 435.774 197.861 439.796 197.256C443.818 196.652 447.57 194.869 450.579 192.132C453.587 189.396 455.716 185.828 456.697 181.881C457.678 177.934 457.467 173.785 456.09 169.959C454.713 166.132 452.232 162.799 448.961 160.383C445.69 157.966 441.775 156.573 437.713 156.381C435.015 156.251 432.318 156.655 429.776 157.569C427.235 158.482 424.898 159.888 422.9 161.706C420.902 163.523 419.282 165.717 418.133 168.161C416.983 170.605 416.327 173.252 416.201 175.95Z" fill="#263238"/>
<path d="M400.549 189.889C400.549 189.889 403.135 205.678 404.344 208.249C405.16 209.872 406.567 211.12 408.276 211.737L408.567 200.736L400.549 189.889Z" fill="#263238"/>
<path d="M405.782 167.688C404.624 167.498 403.438 167.574 402.314 167.911C401.19 168.248 400.158 168.836 399.295 169.631C396.434 172.293 397.535 181.137 400.549 189.888L406.777 190.898L405.782 167.688Z" fill="#263238"/>
<path d="M408.658 190.99C407.373 191.678 405.69 189.185 404.221 187.486C402.752 185.788 397.78 183.34 395.041 188.542C392.303 193.744 396.678 201.226 400.595 202.664C407.358 205.142 408.597 200.797 408.597 200.797L407.954 225.583C413.554 232.468 435.005 238.573 430.323 225.981L430.66 218.438C433.679 219.068 436.756 219.376 439.84 219.356C444.935 218.821 448.301 214.98 450.091 209.595C452.967 200.935 454.237 193.882 452.967 176.516C451.575 157.498 429.573 156.259 417.333 163.175C405.093 170.09 408.658 190.99 408.658 190.99Z" fill="#FFA8A7"/>
<path d="M408.566 193.101C408 192.811 405.705 188.986 404.221 187.486C402.141 185.421 405.751 167.688 405.751 167.688C405.257 166.115 405.233 164.431 405.681 162.844C406.13 161.257 407.031 159.835 408.276 158.753C410.458 156.475 413.203 154.813 416.234 153.937C419.265 153.061 422.473 153.002 425.534 153.765C431.006 155 436.536 155.96 442.104 156.642C447.912 157.292 453.791 156.595 459.286 154.607C459.753 157.707 459.384 160.877 458.215 163.787C456.975 166.511 454.909 168.775 452.309 170.259C449.372 171.957 446.388 172.982 440.253 173.227C432.699 173.655 425.127 172.838 417.838 170.809C415.528 170.381 414.916 172.615 413.371 178.735C412.07 184.029 413.447 195.718 408.566 193.101Z" fill="#263238"/>
<path d="M405.736 169.08L398.3 164.628C398.568 164.128 398.934 163.688 399.377 163.333C399.819 162.979 400.329 162.718 400.876 162.567C401.422 162.415 401.993 162.376 402.555 162.451C403.117 162.527 403.658 162.716 404.145 163.006C405.132 163.627 405.846 164.601 406.142 165.729C406.437 166.857 406.292 168.055 405.736 169.08Z" fill="#263238"/>
<path d="M430.629 218.438C430.629 218.438 419.46 215.638 415.62 213.358C413.362 212.041 411.555 210.074 410.433 207.713C410.92 210.046 411.872 212.258 413.233 214.215C415.926 218.04 430.491 221.437 430.491 221.437L430.629 218.438Z" fill="#F28F8F"/>
<path d="M433.49 190.347C433.451 190.789 433.283 191.209 433.006 191.556C432.73 191.903 432.358 192.162 431.937 192.299C431.515 192.437 431.062 192.447 430.635 192.33C430.207 192.212 429.823 191.972 429.531 191.638C429.239 191.305 429.051 190.892 428.991 190.453C428.931 190.014 429.001 189.566 429.193 189.167C429.385 188.767 429.69 188.432 430.07 188.204C430.451 187.976 430.89 187.865 431.333 187.884C431.943 187.931 432.511 188.215 432.914 188.676C433.317 189.136 433.524 189.736 433.49 190.347Z" fill="#263238"/>
<path d="M431.501 182.544L426.544 184.992C426.233 184.312 426.196 183.538 426.441 182.832C426.686 182.125 427.194 181.54 427.86 181.198C428.186 181.038 428.541 180.946 428.903 180.927C429.266 180.908 429.629 180.964 429.969 181.09C430.31 181.216 430.621 181.41 430.885 181.66C431.148 181.91 431.358 182.211 431.501 182.544Z" fill="#263238"/>
<path d="M430.247 204.821L435.311 207.009C435.181 207.349 434.985 207.658 434.733 207.92C434.481 208.182 434.179 208.391 433.845 208.533C433.511 208.676 433.152 208.75 432.789 208.751C432.425 208.752 432.066 208.68 431.731 208.539C431.054 208.228 430.523 207.668 430.247 206.976C429.971 206.285 429.97 205.513 430.247 204.821Z" fill="#F28F8F"/>
<path d="M451.085 184.778L446.847 181.183C447.066 180.893 447.343 180.652 447.659 180.473C447.975 180.294 448.325 180.182 448.686 180.143C449.047 180.105 449.412 180.14 449.759 180.248C450.106 180.356 450.427 180.533 450.703 180.77C451.272 181.259 451.629 181.95 451.7 182.697C451.772 183.444 451.551 184.19 451.085 184.778Z" fill="#263238"/>
<path d="M449.739 189.522C449.699 189.964 449.53 190.385 449.253 190.732C448.976 191.079 448.603 191.337 448.181 191.474C447.758 191.611 447.305 191.621 446.877 191.502C446.449 191.383 446.066 191.141 445.774 190.806C445.483 190.471 445.297 190.057 445.238 189.617C445.18 189.177 445.253 188.729 445.447 188.33C445.641 187.931 445.948 187.597 446.33 187.371C446.713 187.145 447.153 187.036 447.597 187.059C447.9 187.078 448.196 187.157 448.468 187.292C448.74 187.426 448.983 187.614 449.182 187.843C449.381 188.072 449.533 188.338 449.628 188.627C449.724 188.915 449.761 189.219 449.739 189.522Z" fill="#263238"/>
<path d="M439.793 187.042L437.912 200.629L446.204 200.124L439.793 187.042Z" fill="#F28F8F"/>
<path d="M387.712 488.698L259.284 414.554L500.305 275.461L628.718 349.605L387.712 488.698Z" fill="#455A64"/>
<path d="M259.284 414.553V562.841L266.047 566.743V465.288L380.95 531.629V633.083L387.712 636.985V488.697L259.284 414.553Z" fill="#263238"/>
<path d="M266.047 566.743L272.809 562.841V469.19L266.047 465.288V566.743Z" fill="black"/>
<path d="M387.712 636.985L394.475 633.083V531.629L621.971 400.34V501.794L628.718 497.893V349.605L387.712 488.697V636.985Z" fill="#37474F"/>
<path d="M621.971 501.794L615.208 497.892V404.241L621.971 400.34V501.794Z" fill="#263238"/>
<path d="M386.718 401.273L335.57 430.817C335.121 431.043 334.626 431.161 334.124 431.161C333.622 431.161 333.127 431.043 332.678 430.817L295.01 409.076C294.838 409.014 294.691 408.9 294.586 408.751C294.482 408.602 294.426 408.424 294.426 408.242C294.426 408.06 294.482 407.882 294.586 407.733C294.691 407.584 294.838 407.471 295.01 407.408L346.157 377.91C346.603 377.684 347.096 377.566 347.596 377.566C348.095 377.566 348.588 377.684 349.034 377.91L386.718 399.666C386.87 399.738 386.999 399.852 387.09 399.994C387.18 400.136 387.228 400.301 387.228 400.47C387.228 400.638 387.18 400.803 387.09 400.945C386.999 401.088 386.87 401.201 386.718 401.273Z" fill="#EBEBEB"/>
<path d="M349.034 377.91L384.805 398.565L335.57 426.962C335.121 427.188 334.626 427.305 334.124 427.305C333.622 427.305 333.127 427.188 332.678 426.962L296.907 406.307L346.157 377.91C346.603 377.684 347.096 377.566 347.596 377.566C348.095 377.566 348.588 377.684 349.034 377.91Z" fill="#E0E0E0"/>
<path d="M386.718 396.056L335.57 425.615C335.121 425.841 334.626 425.959 334.124 425.959C333.622 425.959 333.127 425.841 332.678 425.615L294.964 403.92C294.793 403.858 294.645 403.744 294.54 403.595C294.436 403.446 294.38 403.268 294.38 403.086C294.38 402.904 294.436 402.726 294.54 402.577C294.645 402.428 294.793 402.315 294.964 402.252L346.157 372.693C346.603 372.467 347.096 372.349 347.596 372.349C348.095 372.349 348.588 372.467 349.034 372.693L386.718 394.449C386.876 394.516 387.01 394.628 387.105 394.771C387.2 394.914 387.25 395.081 387.25 395.253C387.25 395.424 387.2 395.592 387.105 395.734C387.01 395.877 386.876 395.989 386.718 396.056Z" fill="#FAFAFA"/>
<path d="M428.762 344.036V343.469C428.789 342.97 428.933 342.484 429.183 342.051C429.433 341.617 429.782 341.249 430.2 340.976L515.192 291.908C515.638 291.683 516.13 291.565 516.63 291.565C517.13 291.565 517.623 291.683 518.068 291.908L535.464 301.945C535.883 302.219 536.232 302.587 536.482 303.02C536.731 303.454 536.876 303.94 536.903 304.439V305.021C536.876 305.52 536.731 306.006 536.482 306.439C536.232 306.873 535.883 307.241 535.464 307.514L450.488 356.582C450.04 356.808 449.545 356.925 449.042 356.925C448.54 356.925 448.045 356.808 447.597 356.582L430.2 346.529C429.782 346.256 429.433 345.888 429.183 345.454C428.933 345.021 428.789 344.535 428.762 344.036Z" fill="#E0E0E0"/>
<path d="M430.2 342.628L447.596 352.68C448.042 352.906 448.535 353.024 449.035 353.024C449.534 353.024 450.027 352.906 450.473 352.68L535.464 303.613C535.635 303.551 535.783 303.437 535.888 303.288C535.992 303.139 536.048 302.961 536.048 302.779C536.048 302.597 535.992 302.419 535.888 302.27C535.783 302.121 535.635 302.008 535.464 301.945L518.068 291.908C517.622 291.683 517.13 291.565 516.63 291.565C516.13 291.565 515.638 291.683 515.192 291.908L430.2 340.976C430.027 341.034 429.877 341.145 429.771 341.293C429.665 341.442 429.607 341.619 429.607 341.802C429.607 341.984 429.665 342.162 429.771 342.31C429.877 342.458 430.027 342.57 430.2 342.628Z" fill="#FAFAFA"/>
<path d="M510.112 303.337C508.582 300.874 500.458 293.653 498.867 292.168C497.276 290.684 490.345 289.675 484.271 287.777C478.717 285.207 471.434 281.137 461.81 275.4L455.797 292.719C464.809 295.336 473.805 297.661 477.967 298.839C481.471 300.186 481.348 301.226 484.209 302.848C489.503 305.908 492.961 305.265 492.961 305.265C494.534 306.758 496.205 308.143 497.964 309.412C501.728 311.982 505.492 314.002 510.112 312.472C515.177 310.819 511.612 305.816 510.112 303.337Z" fill="#FFA8A7"/>
<path d="M488.693 414.63C493.619 409.596 496.526 397.035 491.753 393.057H467.273C462.469 397.035 465.36 409.581 470.333 414.615L470.471 414.752C470.519 414.816 470.575 414.873 470.639 414.921C470.776 415.065 470.924 415.198 471.083 415.318L471.205 415.41C471.321 415.515 471.444 415.612 471.572 415.701L472.199 416.099C474.475 417.253 476.991 417.855 479.543 417.855C482.095 417.855 484.611 417.253 486.887 416.099C487.108 415.972 487.323 415.834 487.53 415.686L487.882 415.426L488.02 415.318L488.448 414.936L488.647 414.737L488.693 414.63Z" fill="#EBEBEB"/>
<path d="M469.384 391.45C463.799 394.663 463.799 399.896 469.384 403.109C472.515 404.7 475.977 405.529 479.489 405.529C483.001 405.529 486.464 404.7 489.595 403.109C495.164 399.896 495.164 394.663 489.595 391.45C486.464 389.859 483.001 389.03 479.489 389.03C475.977 389.03 472.515 389.859 469.384 391.45Z" fill="#FAFAFA"/>
<path d="M473.27 393.73C469.889 395.689 469.889 398.871 473.27 400.829C475.169 401.785 477.265 402.282 479.39 402.282C481.516 402.282 483.612 401.785 485.51 400.829C488.907 398.871 488.907 395.689 485.51 393.73C483.612 392.775 481.516 392.277 479.39 392.277C477.265 392.277 475.169 392.775 473.27 393.73Z" fill="#EBEBEB"/>
<path d="M485.632 397.096C483.734 396.141 481.638 395.643 479.512 395.643C477.387 395.643 475.291 396.141 473.392 397.096C472.577 397.55 471.88 398.189 471.357 398.963C471.841 399.733 472.495 400.382 473.27 400.86C475.169 401.815 477.264 402.313 479.39 402.313C481.515 402.313 483.611 401.815 485.51 400.86C486.332 400.415 487.031 399.774 487.545 398.993C487.069 398.216 486.413 397.565 485.632 397.096Z" fill="#E0E0E0"/>
<path d="M474.081 398.963C472.348 397.199 470.856 395.213 469.644 393.057C467.579 389.416 467.212 384.55 468.267 383.954C469.323 383.357 473.653 388.207 473.653 388.207C473.259 386.192 473.105 384.138 473.194 382.087C473.378 378.843 474.173 375.967 475.091 375.324C476.009 374.682 478.151 378.813 478.977 381.766C479.804 384.719 480.4 387.151 480.4 387.151C480.741 384.847 481.252 382.571 481.93 380.343C483.017 377.283 483.981 376.579 484.746 376.885C485.511 377.191 486 378.614 486.276 382.714C486.355 384.664 486.293 386.618 486.092 388.559C486.092 388.559 487.622 386.891 489.305 385.254C490.988 383.617 491.952 383.234 492.487 383.571C493.023 383.908 493.161 386.631 490.284 391.894C488.854 394.543 487.022 396.953 484.853 399.039C484.853 399.039 480.921 401.533 474.081 398.963Z" fill="#37474F"/>
<path d="M454.68 438.422C454.832 438.355 454.963 438.248 455.059 438.114C455.156 437.98 455.215 437.822 455.231 437.657V436.479L398.3 404.349C397.891 404.138 397.437 404.028 396.976 404.028C396.516 404.028 396.062 404.138 395.653 404.349L344.49 433.878L403.532 467.951L454.68 438.422Z" fill="#37474F"/>
<path opacity="0.2" d="M454.68 438.422C454.832 438.355 454.963 438.248 455.059 438.114C455.156 437.98 455.215 437.822 455.231 437.657V436.479L398.3 404.349C397.891 404.138 397.437 404.028 396.976 404.028C396.516 404.028 396.062 404.138 395.653 404.349L344.49 433.878L403.532 467.951L454.68 438.422Z" fill="black"/>
<path d="M454.68 437.274C454.839 437.219 454.976 437.115 455.073 436.978C455.17 436.841 455.222 436.677 455.222 436.509C455.222 436.341 455.17 436.178 455.073 436.041C454.976 435.904 454.839 435.8 454.68 435.744L398.3 403.201C397.891 402.991 397.437 402.881 396.976 402.881C396.516 402.881 396.062 402.991 395.653 403.201L344.49 432.73L403.532 466.803L454.68 437.274Z" fill="#37474F"/>
<path opacity="0.5" d="M454.68 437.274C454.839 437.219 454.976 437.115 455.073 436.978C455.17 436.841 455.222 436.677 455.222 436.509C455.222 436.341 455.17 436.178 455.073 436.041C454.976 435.904 454.839 435.8 454.68 435.744L398.3 403.201C397.891 402.991 397.437 402.881 396.976 402.881C396.516 402.881 396.062 402.991 395.653 403.201L344.49 432.73L403.532 466.803L454.68 437.274Z" fill="black"/>
<path d="M356.271 425.018L394.139 403.155C394.554 402.954 395.009 402.85 395.47 402.85C395.931 402.85 396.386 402.954 396.801 403.155L448.821 433.173L453.747 430.312V436.142H453.656C453.824 436.493 453.656 436.891 453.212 437.167L409.821 462.213L350.778 428.14V421.775L356.271 425.018Z" fill="#EBEBEB"/>
<path d="M453.181 430.863C453.339 430.808 453.477 430.704 453.574 430.567C453.671 430.43 453.723 430.266 453.723 430.098C453.723 429.931 453.671 429.767 453.574 429.63C453.477 429.493 453.339 429.389 453.181 429.333L396.77 396.79C396.358 396.58 395.902 396.47 395.439 396.47C394.976 396.47 394.52 396.58 394.108 396.79L350.717 421.836L409.79 455.94L453.181 430.863Z" fill="#FAFAFA"/>
<path d="M409.79 455.894V462.274L350.748 428.201V421.836L409.79 455.894Z" fill="#E6E6E6"/>
<path d="M409.086 453.401C409.24 453.482 409.405 453.538 409.576 453.569C409.832 453.636 410.1 453.636 410.356 453.569C410.443 453.555 410.526 453.523 410.601 453.477C410.999 453.263 410.953 452.865 410.494 452.605C410.281 452.491 410.046 452.423 409.805 452.406C409.522 452.369 409.235 452.417 408.979 452.544C408.954 452.537 408.928 452.537 408.903 452.544C408.597 452.88 408.658 453.156 409.086 453.401Z" fill="#263238"/>
<path d="M402.4 458.388C402.365 459.178 402.603 459.956 403.074 460.591C403.299 460.877 403.588 461.107 403.917 461.264C404.246 461.421 404.606 461.499 404.971 461.494C405.621 461.476 406.254 461.286 406.807 460.943L407.143 460.744L406.394 460.316C404.588 461.325 403.15 460.469 403.15 458.388C403.213 457.251 403.542 456.146 404.111 455.16C404.68 454.174 405.472 453.335 406.424 452.712C406.774 452.444 407.197 452.289 407.637 452.267C408.077 452.245 408.513 452.357 408.888 452.589C409.22 452.827 409.458 453.173 409.561 453.568C409.817 453.636 410.085 453.636 410.341 453.568C410.252 453.143 410.064 452.744 409.79 452.406C409.563 452.122 409.274 451.895 408.945 451.741C408.616 451.587 408.256 451.511 407.893 451.518C407.237 451.542 406.599 451.737 406.042 452.084C404.974 452.767 404.087 453.695 403.453 454.792C402.819 455.889 402.458 457.122 402.4 458.388Z" fill="#263238"/>
<path d="M404.313 452.375L455.231 427.482V428.4C455.215 428.628 455.147 428.85 455.033 429.048C454.919 429.247 454.762 429.418 454.574 429.547L404.313 453.599V452.375Z" fill="#37474F"/>
<path opacity="0.2" d="M404.313 452.375L455.231 427.482V428.4C455.215 428.628 455.147 428.85 455.033 429.048C454.919 429.247 454.762 429.418 454.574 429.547L404.313 453.599V452.375Z" fill="black"/>
<path d="M454.68 428.247C455.415 427.818 455.415 427.13 454.68 426.717L398.3 394.174C397.891 393.963 397.437 393.853 396.976 393.853C396.516 393.853 396.062 393.963 395.653 394.174L344.49 418.73L403.532 452.88L454.68 428.247Z" fill="#37474F"/>
<path d="M403.532 467.951L344.49 433.877V418.715L403.532 452.804V467.951Z" fill="#37474F"/>
<path opacity="0.1" d="M403.532 467.951L344.49 433.877V418.715L403.532 452.804V467.951Z" fill="black"/>
<path d="M391.889 458.22C392.256 458.224 392.618 458.145 392.95 457.988C393.281 457.832 393.572 457.602 393.802 457.317C394.264 456.677 394.501 455.902 394.475 455.114C394.409 453.84 394.041 452.601 393.403 451.497C392.764 450.393 391.874 449.457 390.803 448.764C390.246 448.419 389.607 448.228 388.952 448.213C387.422 448.213 386.381 449.468 386.381 451.273C386.442 452.546 386.806 453.786 387.442 454.89C388.078 455.994 388.968 456.931 390.038 457.623C390.596 457.966 391.234 458.156 391.889 458.174V458.22Z" fill="#455A64"/>
<path d="M393.71 455.114C393.71 457.21 392.18 458.052 390.421 457.011C389.467 456.385 388.674 455.544 388.106 454.555C387.537 453.567 387.208 452.458 387.146 451.32C387.146 449.239 388.676 448.382 390.421 449.438C391.374 450.061 392.168 450.9 392.739 451.885C393.31 452.871 393.643 453.977 393.71 455.114Z" fill="#F5F5F5"/>
<path d="M381.807 447.495V448.642C381.807 450.937 380.185 451.87 378.196 450.723L352.614 435.958C351.566 435.273 350.693 434.351 350.066 433.267C349.439 432.183 349.075 430.967 349.003 429.716V428.569C349.003 426.274 350.625 425.34 352.614 426.488L378.196 441.252C379.245 441.937 380.119 442.858 380.746 443.943C381.373 445.027 381.737 446.244 381.807 447.495Z" fill="#F5F5F5"/>
<path d="M404.328 467.506V452.421L403.533 452.803V467.95L404.328 467.506Z" fill="#37474F"/>
<path opacity="0.2" d="M404.328 467.506V452.421L403.533 452.803V467.95L404.328 467.506Z" fill="black"/>
<path d="M345.041 416.359C345.059 416.543 345.119 416.721 345.217 416.877C345.315 417.034 345.449 417.166 345.607 417.262L403.517 450.662C403.695 450.752 403.892 450.799 404.091 450.799C404.29 450.799 404.487 450.752 404.665 450.662L456.547 424.422V423.26L397.52 389.186L345.607 415.441C345.448 415.541 345.315 415.675 345.217 415.835C345.119 415.994 345.059 416.173 345.041 416.359Z" fill="#37474F"/>
<path opacity="0.1" d="M404.083 449.652V450.799C403.881 450.802 403.681 450.755 403.502 450.661L345.622 417.277C345.461 417.179 345.325 417.045 345.224 416.886C345.123 416.727 345.06 416.546 345.041 416.359C345.059 416.171 345.121 415.99 345.222 415.831C345.323 415.671 345.46 415.538 345.622 415.441C345.301 415.624 345.301 415.915 345.622 416.099L403.502 449.514C403.678 449.615 403.88 449.663 404.083 449.652Z" fill="black"/>
<path opacity="0.5" d="M456.547 423.259L404.665 449.514C404.488 449.613 404.286 449.661 404.084 449.652C403.881 449.663 403.679 449.615 403.502 449.514L345.622 416.16C345.301 415.977 345.301 415.686 345.622 415.502L397.535 389.247L456.547 423.259Z" fill="black"/>
<path opacity="0.2" d="M456.547 423.259V424.422L404.665 450.662C404.488 450.761 404.286 450.809 404.083 450.799V449.652C404.286 449.661 404.488 449.613 404.665 449.514L456.547 423.259Z" fill="black"/>
<path d="M455.767 423.718L396.709 389.661V374.483L455.767 408.724V423.718Z" fill="#37474F"/>
<path opacity="0.7" d="M455.767 423.718L396.709 389.661V374.483L455.767 408.724V423.718Z" fill="black"/>
<path d="M345.76 408.189C345.548 408.326 345.372 408.511 345.244 408.729C345.117 408.947 345.042 409.192 345.025 409.443V412.503C345.037 412.754 345.11 412.999 345.238 413.215C345.366 413.431 345.545 413.612 345.76 413.743L403.364 446.974C403.586 447.092 403.833 447.154 404.083 447.154C404.334 447.154 404.581 447.092 404.802 446.974L448.79 423.198V418.47L389.763 384.397L345.76 408.189Z" fill="#EBEBEB"/>
<path d="M389.763 384.397L345.76 408.189C345.672 408.218 345.595 408.275 345.541 408.35C345.486 408.426 345.457 408.516 345.457 408.61C345.457 408.703 345.486 408.793 345.541 408.869C345.595 408.944 345.672 409.001 345.76 409.03L403.364 442.262C403.586 442.38 403.833 442.441 404.083 442.441C404.334 442.441 404.581 442.38 404.803 442.262L448.79 418.47L389.763 384.397Z" fill="#FAFAFA"/>
<path d="M443.19 418.852C443.344 418.933 443.509 418.99 443.68 419.021C443.936 419.088 444.205 419.088 444.46 419.021C444.547 419.006 444.63 418.975 444.705 418.929C445.103 418.715 445.057 418.317 444.598 418.057C444.385 417.943 444.15 417.875 443.909 417.858C443.627 417.821 443.339 417.869 443.083 417.996C442.67 418.271 442.762 418.608 443.19 418.852Z" fill="#263238"/>
<path d="M404.083 442.415V447.158C403.828 447.164 403.576 447.106 403.349 446.99L345.744 413.773C345.539 413.631 345.369 413.445 345.247 413.227C345.125 413.01 345.055 412.768 345.041 412.519V409.459C345.064 409.03 345.257 408.629 345.576 408.342C345.362 408.556 345.423 408.847 345.744 409.046L403.349 442.262C403.573 442.384 403.829 442.437 404.083 442.415Z" fill="#E6E6E6"/>
<path d="M450.886 412.289C450.421 412.043 449.897 411.929 449.371 411.958C448.845 411.988 448.338 412.161 447.903 412.458C445.858 413.905 444.411 416.048 443.833 418.486L444.812 418.639C445.338 416.492 446.606 414.601 448.392 413.299C448.77 413.076 449.194 412.945 449.632 412.917C449.897 412.913 450.158 412.988 450.381 413.131C450.846 413.543 451.198 414.067 451.405 414.653C451.611 415.24 451.664 415.869 451.559 416.481C451.468 419.633 449.678 423.183 447.551 424.407C447.096 424.697 446.558 424.826 446.021 424.774L444.95 425.386C445.33 425.611 445.763 425.727 446.204 425.723C446.817 425.708 447.414 425.528 447.933 425.202C450.351 423.81 452.325 419.97 452.432 416.466C452.55 415.696 452.47 414.908 452.199 414.178C451.929 413.447 451.477 412.797 450.886 412.289Z" fill="#263238"/>
<path d="M345.041 406.72C345.059 406.906 345.119 407.085 345.217 407.244C345.315 407.404 345.448 407.538 345.607 407.638L403.517 441.038C403.695 441.128 403.892 441.175 404.091 441.175C404.29 441.175 404.487 441.128 404.665 441.038L456.547 409.321V408.173L397.52 374.085L345.607 405.817C345.449 405.913 345.315 406.045 345.217 406.202C345.119 406.358 345.059 406.536 345.041 406.72Z" fill="#37474F"/>
<path opacity="0.1" d="M404.084 440.013V441.16C403.883 441.161 403.685 441.12 403.502 441.038L345.622 407.638C345.447 407.557 345.298 407.428 345.193 407.265C345.089 407.103 345.033 406.913 345.033 406.72C345.033 406.527 345.089 406.337 345.193 406.175C345.298 406.012 345.447 405.882 345.622 405.802C345.55 405.824 345.487 405.868 345.442 405.929C345.397 405.99 345.373 406.063 345.373 406.139C345.373 406.214 345.397 406.287 345.442 406.348C345.487 406.409 345.55 406.453 345.622 406.475L403.502 439.89C403.683 439.979 403.883 440.021 404.084 440.013Z" fill="black"/>
<path d="M456.547 408.173L404.665 439.89C404.484 439.977 404.284 440.019 404.084 440.013C403.883 440.021 403.683 439.979 403.502 439.89L345.622 406.475C345.55 406.453 345.487 406.408 345.442 406.348C345.397 406.287 345.373 406.214 345.373 406.138C345.373 406.063 345.397 405.989 345.442 405.929C345.487 405.868 345.55 405.824 345.622 405.802L397.535 374.085L456.547 408.173Z" fill="#37474F"/>
<path opacity="0.2" d="M456.547 408.174V409.321L404.665 441.038C404.484 441.125 404.284 441.167 404.083 441.161V440.013C404.284 440.02 404.484 439.978 404.665 439.891L456.547 408.174Z" fill="black"/>
<path d="M456.547 423.259V408.189L455.767 408.724V423.718L456.547 423.259Z" fill="#37474F"/>
<path opacity="0.2" d="M456.547 423.259V408.189L455.767 408.724V423.718L456.547 423.259Z" fill="black"/>
<path d="M454.68 407.944C454.832 407.877 454.963 407.771 455.059 407.636C455.156 407.502 455.215 407.344 455.231 407.179V406.001L398.3 373.871C397.887 373.673 397.435 373.57 396.976 373.57C396.518 373.57 396.066 373.673 395.653 373.871L344.49 403.415L403.532 437.488L454.68 407.944Z" fill="#37474F"/>
<path opacity="0.2" d="M454.68 407.944C454.832 407.877 454.963 407.771 455.059 407.636C455.156 407.502 455.215 407.344 455.231 407.179V406.001L398.3 373.871C397.887 373.673 397.435 373.57 396.976 373.57C396.518 373.57 396.066 373.673 395.653 373.871L344.49 403.415L403.532 437.488L454.68 407.944Z" fill="black"/>
<path d="M454.68 406.796C455.415 406.368 455.415 405.679 454.68 405.266L398.3 372.708C397.887 372.51 397.435 372.407 396.976 372.407C396.518 372.407 396.066 372.51 395.653 372.708L344.49 402.252L403.532 436.325L454.68 406.796Z" fill="#37474F"/>
<path opacity="0.5" d="M454.68 406.796C455.415 406.368 455.415 405.679 454.68 405.266L398.3 372.708C397.887 372.51 397.435 372.407 396.976 372.407C396.518 372.407 396.066 372.51 395.653 372.708L344.49 402.252L403.532 436.325L454.68 406.796Z" fill="black"/>
<path d="M356.271 394.541L394.138 372.677C394.55 372.467 395.007 372.357 395.469 372.357C395.932 372.357 396.389 372.467 396.801 372.677L448.821 402.696L453.747 399.82V405.664H453.655C453.695 405.762 453.715 405.866 453.714 405.971C453.714 406.076 453.692 406.18 453.651 406.277C453.609 406.374 453.549 406.461 453.474 406.535C453.399 406.608 453.309 406.666 453.212 406.705L409.821 431.735L350.748 397.8V391.42L356.271 394.541Z" fill="#EBEBEB"/>
<path d="M453.181 400.386C453.339 400.33 453.477 400.227 453.574 400.09C453.671 399.953 453.723 399.789 453.723 399.621C453.723 399.453 453.671 399.289 453.574 399.152C453.477 399.015 453.339 398.912 453.181 398.856L396.77 366.298C396.355 366.097 395.9 365.993 395.439 365.993C394.978 365.993 394.523 366.097 394.108 366.298L350.717 391.344L409.759 425.417L453.181 400.386Z" fill="#FAFAFA"/>
<path d="M409.79 425.416V431.781L350.748 397.724V391.343L409.79 425.416Z" fill="#E6E6E6"/>
<path d="M409.086 422.923C409.24 423.004 409.405 423.06 409.576 423.091C409.832 423.158 410.1 423.158 410.356 423.091C410.443 423.077 410.526 423.045 410.601 422.999C410.999 422.785 410.953 422.387 410.494 422.127C410.281 422.013 410.046 421.945 409.805 421.928C409.522 421.891 409.235 421.939 408.979 422.066C408.954 422.059 408.928 422.059 408.903 422.066C408.597 422.28 408.658 422.678 409.086 422.923Z" fill="#263238"/>
<path d="M402.4 427.911C402.365 428.701 402.603 429.479 403.074 430.114C403.299 430.4 403.588 430.63 403.917 430.787C404.246 430.944 404.606 431.022 404.971 431.017C405.621 430.999 406.254 430.809 406.807 430.466L407.143 430.267L406.394 429.839C404.588 430.848 403.15 429.992 403.15 427.911C403.213 426.774 403.542 425.669 404.111 424.683C404.68 423.697 405.472 422.858 406.424 422.235C406.774 421.967 407.197 421.812 407.637 421.79C408.077 421.768 408.513 421.88 408.888 422.112C409.22 422.35 409.458 422.696 409.561 423.091C409.817 423.159 410.085 423.159 410.341 423.091C410.252 422.666 410.064 422.267 409.79 421.929C409.563 421.645 409.274 421.418 408.945 421.264C408.616 421.11 408.256 421.034 407.893 421.041C407.238 421.058 406.6 421.248 406.042 421.592C404.975 422.279 404.088 423.21 403.454 424.31C402.821 425.409 402.46 426.644 402.4 427.911Z" fill="#263238"/>
<path d="M404.313 421.882L455.231 397.004V397.8C455.215 398.028 455.147 398.25 455.033 398.448C454.919 398.647 454.762 398.817 454.574 398.947L404.313 423.045V421.882Z" fill="#37474F"/>
<path opacity="0.2" d="M404.313 421.882L455.231 397.004V397.8C455.215 398.028 455.147 398.25 455.033 398.448C454.919 398.647 454.762 398.817 454.574 398.947L404.313 423.045V421.882Z" fill="black"/>
<path d="M454.68 397.8C455.415 397.387 455.415 396.699 454.68 396.27L398.3 363.681C397.887 363.483 397.435 363.38 396.976 363.38C396.518 363.38 396.066 363.483 395.653 363.681L344.49 388.253L403.532 422.28L454.68 397.8Z" fill="#37474F"/>
<path d="M403.532 437.473L344.49 403.4V388.222L403.532 422.326V437.473Z" fill="#37474F"/>
<path opacity="0.1" d="M403.532 437.473L344.49 403.4V388.222L403.532 422.326V437.473Z" fill="black"/>
<path d="M391.889 427.742C392.256 427.747 392.618 427.668 392.95 427.511C393.281 427.355 393.572 427.125 393.802 426.84C394.264 426.2 394.501 425.425 394.475 424.636C394.409 423.363 394.041 422.124 393.403 421.02C392.764 419.916 391.874 418.98 390.803 418.287C390.246 417.941 389.607 417.751 388.952 417.736C387.422 417.736 386.381 418.991 386.381 420.796C386.442 422.069 386.806 423.309 387.442 424.413C388.078 425.517 388.968 426.454 390.038 427.146C390.596 427.489 391.234 427.679 391.889 427.696V427.742Z" fill="#455A64"/>
<path d="M393.71 424.637C393.71 426.718 392.18 427.574 390.421 426.519C389.467 425.897 388.673 425.059 388.104 424.072C387.535 423.086 387.207 421.979 387.146 420.842C387.146 418.746 388.676 417.905 390.421 418.945C391.373 419.573 392.167 420.414 392.738 421.402C393.309 422.39 393.642 423.498 393.71 424.637Z" fill="#F5F5F5"/>
<path d="M381.807 417.017V418.164C381.807 420.459 380.185 421.393 378.196 420.245L352.614 405.45C351.563 404.768 350.688 403.846 350.061 402.762C349.433 401.677 349.071 400.459 349.003 399.208V398.06C349.003 395.765 350.625 394.832 352.614 395.995L378.196 410.759C379.247 411.445 380.122 412.369 380.749 413.456C381.377 414.544 381.739 415.764 381.807 417.017Z" fill="#F5F5F5"/>
<path d="M404.328 437.014V421.928L403.533 422.326V437.473L404.328 437.014Z" fill="#37474F"/>
<path opacity="0.2" d="M404.328 437.014V421.928L403.533 422.326V437.473L404.328 437.014Z" fill="black"/>
<path d="M345.041 384.963C345.059 385.149 345.119 385.329 345.217 385.488C345.315 385.647 345.448 385.782 345.607 385.881L403.517 419.22C403.695 419.31 403.892 419.357 404.091 419.357C404.29 419.357 404.487 419.31 404.665 419.22L456.547 392.981V391.818L397.52 357.745L345.607 384.03C345.446 384.131 345.312 384.268 345.214 384.43C345.116 384.592 345.056 384.775 345.041 384.963Z" fill="#37474F"/>
<path opacity="0.1" d="M404.083 418.272V419.419C403.882 419.416 403.684 419.369 403.502 419.282L345.622 385.882C345.451 385.799 345.306 385.67 345.204 385.509C345.103 385.348 345.049 385.162 345.049 384.971C345.049 384.781 345.103 384.595 345.204 384.434C345.306 384.272 345.451 384.143 345.622 384.061C345.301 384.245 345.301 384.535 345.622 384.719L403.502 418.134C403.681 418.228 403.881 418.275 404.083 418.272Z" fill="black"/>
<path opacity="0.5" d="M456.547 391.879L404.665 418.134C404.485 418.226 404.286 418.273 404.084 418.272C403.881 418.275 403.681 418.228 403.502 418.134L345.622 384.719C345.301 384.535 345.301 384.244 345.622 384.061L397.535 357.806L456.547 391.879Z" fill="black"/>
<path opacity="0.2" d="M456.547 391.879V393.042L404.665 419.22C404.488 419.32 404.286 419.367 404.083 419.358V418.21C404.286 418.212 404.485 418.165 404.665 418.073L456.547 391.879Z" fill="black"/>
<path d="M455.767 392.338L396.709 358.28V343.103L455.767 377.344V392.338Z" fill="#37474F"/>
<path opacity="0.7" d="M455.767 392.338L396.709 358.28V343.103L455.767 377.344V392.338Z" fill="black"/>
<path d="M345.76 376.808C345.548 376.946 345.372 377.131 345.244 377.349C345.117 377.567 345.042 377.811 345.025 378.063V381.123C345.042 381.375 345.117 381.619 345.244 381.837C345.372 382.055 345.548 382.24 345.76 382.378L403.364 415.609C403.586 415.727 403.833 415.789 404.083 415.789C404.334 415.789 404.581 415.727 404.802 415.609L448.79 391.818V387.09L389.763 353.002L345.76 376.808Z" fill="#EBEBEB"/>
<path d="M389.763 353.002L345.76 376.808C345.669 376.833 345.589 376.887 345.533 376.962C345.476 377.036 345.445 377.128 345.445 377.221C345.445 377.315 345.476 377.407 345.533 377.481C345.589 377.556 345.669 377.61 345.76 377.635L403.364 410.881C403.586 410.999 403.833 411.061 404.083 411.061C404.334 411.061 404.581 410.999 404.802 410.881L448.79 387.09L389.763 353.002Z" fill="#FAFAFA"/>
<path d="M443.19 387.473C443.344 387.554 443.509 387.61 443.68 387.641C443.936 387.708 444.205 387.708 444.46 387.641C444.547 387.627 444.63 387.595 444.705 387.549C445.103 387.335 445.057 386.937 444.598 386.677C444.385 386.563 444.15 386.495 443.909 386.478C443.627 386.441 443.339 386.489 443.083 386.616C442.67 386.891 442.762 387.228 443.19 387.473Z" fill="#263238"/>
<path d="M404.083 411.035V415.778C403.828 415.784 403.576 415.726 403.349 415.61L345.744 382.378C345.535 382.244 345.362 382.061 345.239 381.845C345.117 381.629 345.048 381.387 345.041 381.139V378.079C345.047 377.865 345.098 377.656 345.19 377.464C345.282 377.271 345.414 377.1 345.576 376.962C345.362 377.176 345.423 377.451 345.744 377.65L403.349 410.882C403.573 411.004 403.829 411.057 404.083 411.035Z" fill="#E6E6E6"/>
<path d="M450.886 380.97C450.419 380.726 449.895 380.614 449.369 380.647C448.843 380.679 448.336 380.854 447.903 381.154C445.858 382.601 444.411 384.744 443.833 387.182L444.812 387.335C445.334 385.187 446.603 383.294 448.392 381.995C448.767 381.766 449.193 381.634 449.632 381.613C449.895 381.614 450.153 381.682 450.381 381.812C450.846 382.227 451.198 382.754 451.404 383.343C451.61 383.932 451.664 384.563 451.559 385.178C451.468 388.33 449.678 391.879 447.551 393.103C447.096 393.393 446.558 393.522 446.021 393.47L444.95 394.082C445.332 394.3 445.764 394.416 446.204 394.419C446.817 394.404 447.414 394.224 447.933 393.899C450.351 392.506 452.325 388.666 452.432 385.162C452.552 384.39 452.474 383.599 452.203 382.866C451.933 382.132 451.48 381.48 450.886 380.97Z" fill="#263238"/>
<path d="M345.041 375.34C345.059 375.524 345.119 375.701 345.217 375.858C345.315 376.014 345.449 376.146 345.607 376.242L403.517 409.642C403.695 409.732 403.892 409.779 404.091 409.779C404.29 409.779 404.487 409.732 404.665 409.642L456.547 377.91V376.747L397.52 342.72L345.607 374.437C345.45 374.535 345.318 374.667 345.22 374.823C345.122 374.98 345.061 375.156 345.041 375.34Z" fill="#37474F"/>
<path opacity="0.1" d="M404.083 408.632V409.78C403.881 409.783 403.681 409.736 403.502 409.642L345.622 376.257C345.461 376.159 345.325 376.026 345.224 375.866C345.123 375.707 345.06 375.527 345.041 375.339C345.059 375.152 345.121 374.971 345.222 374.811C345.323 374.652 345.46 374.518 345.622 374.421C345.301 374.605 345.301 374.911 345.622 375.079L403.502 408.51C403.68 408.605 403.882 408.648 404.083 408.632Z" fill="black"/>
<path d="M456.547 376.778L404.665 408.51C404.488 408.609 404.286 408.657 404.084 408.648C403.881 408.659 403.679 408.611 403.502 408.51L345.622 375.095C345.301 374.927 345.301 374.621 345.622 374.437L397.535 342.72L456.547 376.778Z" fill="#37474F"/>
<path opacity="0.2" d="M456.547 376.778V377.91L404.665 409.612C404.488 409.711 404.286 409.759 404.083 409.749V408.602C404.286 408.611 404.488 408.563 404.665 408.464L456.547 376.778Z" fill="black"/>
<path d="M456.547 391.879V376.809L455.767 377.344V392.338L456.547 391.879Z" fill="#37474F"/>
<path opacity="0.2" d="M456.547 391.879V376.809L455.767 377.344V392.338L456.547 391.879Z" fill="black"/>
<path d="M454.68 376.549C454.832 376.485 454.963 376.382 455.06 376.25C455.157 376.118 455.216 375.962 455.231 375.799V374.621L398.3 342.491C397.887 342.293 397.435 342.19 396.976 342.19C396.518 342.19 396.066 342.293 395.653 342.491L344.49 372.035L403.532 406.093L454.68 376.549Z" fill="#37474F"/>
<path opacity="0.2" d="M454.68 376.549C454.832 376.485 454.963 376.382 455.06 376.25C455.157 376.118 455.216 375.962 455.231 375.799V374.621L398.3 342.491C397.887 342.293 397.435 342.19 396.976 342.19C396.518 342.19 396.066 342.293 395.653 342.491L344.49 372.035L403.532 406.093L454.68 376.549Z" fill="black"/>
<path d="M454.68 375.401C455.415 374.988 455.415 374.299 454.68 373.871L398.3 341.328C397.887 341.13 397.435 341.027 396.976 341.027C396.518 341.027 396.066 341.13 395.653 341.328L344.49 370.872L403.532 404.93L454.68 375.401Z" fill="#37474F"/>
<path opacity="0.5" d="M454.68 375.401C455.415 374.988 455.415 374.299 454.68 373.871L398.3 341.328C397.887 341.13 397.435 341.027 396.976 341.027C396.518 341.027 396.066 341.13 395.653 341.328L344.49 370.872L403.532 404.93L454.68 375.401Z" fill="black"/>
<path d="M356.271 363.146L394.138 341.297C394.55 341.086 395.007 340.976 395.469 340.976C395.932 340.976 396.389 341.086 396.801 341.297L448.821 371.316L453.747 368.439V374.284H453.655C453.824 374.651 453.655 375.034 453.212 375.324L409.79 400.401L350.748 366.343V359.963L356.271 363.146Z" fill="#EBEBEB"/>
<path d="M453.181 368.991C453.339 368.935 453.477 368.831 453.574 368.694C453.671 368.557 453.723 368.393 453.723 368.226C453.723 368.058 453.671 367.894 453.574 367.757C453.477 367.62 453.339 367.516 453.181 367.461L396.77 334.917C396.358 334.707 395.902 334.597 395.439 334.597C394.976 334.597 394.52 334.707 394.108 334.917L350.717 359.964L409.759 394.037L453.181 368.991Z" fill="#FAFAFA"/>
<path d="M409.79 394.036V400.401L350.748 366.343V359.963L409.79 394.036Z" fill="#E6E6E6"/>
<path d="M409.087 391.542C409.24 391.623 409.405 391.68 409.576 391.71C409.832 391.778 410.101 391.778 410.357 391.71C410.419 391.709 410.481 391.698 410.54 391.68C410.938 391.466 410.892 391.068 410.433 390.808C410.22 390.694 409.986 390.626 409.745 390.609C409.462 390.572 409.174 390.62 408.918 390.746C408.893 390.74 408.867 390.74 408.842 390.746C408.597 390.961 408.658 391.297 409.087 391.542Z" fill="#263238"/>
<path d="M402.4 396.53C402.365 397.32 402.603 398.098 403.074 398.733C403.299 399.019 403.588 399.25 403.917 399.406C404.246 399.563 404.606 399.641 404.971 399.636C405.621 399.618 406.254 399.428 406.807 399.085L407.143 398.886L406.394 398.458C404.588 399.468 403.15 398.611 403.15 396.53C403.213 395.394 403.542 394.288 404.111 393.302C404.68 392.316 405.472 391.477 406.424 390.854C406.774 390.586 407.197 390.431 407.637 390.409C408.077 390.387 408.513 390.5 408.888 390.731C409.22 390.969 409.458 391.315 409.561 391.711C409.817 391.778 410.085 391.778 410.341 391.711C410.252 391.285 410.064 390.886 409.79 390.548C409.563 390.264 409.274 390.037 408.945 389.883C408.616 389.729 408.256 389.653 407.893 389.66C407.238 389.678 406.6 389.868 406.042 390.211C404.975 390.898 404.088 391.83 403.454 392.929C402.821 394.028 402.46 395.263 402.4 396.53Z" fill="#263238"/>
<path d="M404.313 390.502L455.231 365.67V366.496C455.215 366.725 455.147 366.946 455.033 367.145C454.919 367.343 454.762 367.514 454.574 367.644L404.313 391.68V390.502Z" fill="#37474F"/>
<path opacity="0.2" d="M404.313 390.502L455.231 365.67V366.496C455.215 366.725 455.147 366.946 455.033 367.145C454.919 367.343 454.762 367.514 454.574 367.644L404.313 391.68V390.502Z" fill="black"/>
<path d="M454.68 366.374C455.415 365.961 455.415 365.272 454.68 364.844L398.3 332.301C397.891 332.09 397.437 331.98 396.976 331.98C396.516 331.98 396.062 332.09 395.653 332.301L344.49 356.857L403.532 390.93L454.68 366.374Z" fill="#37474F"/>
<path d="M403.532 406.077L344.49 372.02V356.842L403.532 390.93V406.077Z" fill="#37474F"/>
<path opacity="0.1" d="M403.532 406.077L344.49 372.02V356.842L403.532 390.93V406.077Z" fill="black"/>
<path d="M391.889 396.346C392.256 396.35 392.618 396.271 392.95 396.115C393.281 395.959 393.572 395.729 393.802 395.443C394.266 394.805 394.503 394.029 394.475 393.24C394.41 391.969 394.043 390.731 393.404 389.63C392.766 388.528 391.874 387.594 390.803 386.906C390.246 386.561 389.607 386.37 388.952 386.355C387.422 386.355 386.381 387.595 386.381 389.415C386.44 390.687 386.802 391.925 387.439 393.027C388.075 394.13 388.966 395.063 390.038 395.749C390.596 396.093 391.234 396.283 391.889 396.3V396.346Z" fill="#455A64"/>
<path d="M393.71 393.21C393.71 395.306 392.18 396.147 390.421 395.107C389.467 394.485 388.673 393.647 388.104 392.661C387.535 391.674 387.207 390.568 387.146 389.431C387.146 387.335 388.676 386.493 390.421 387.534C391.373 388.158 392.167 388.997 392.738 389.982C393.309 390.968 393.642 392.073 393.71 393.21Z" fill="#F5F5F5"/>
<path d="M381.807 385.636V386.784C381.807 389.079 380.185 390.012 378.196 388.865L352.614 374.085C351.565 373.401 350.691 372.479 350.064 371.395C349.437 370.31 349.074 369.093 349.003 367.843V366.695C349.003 364.4 350.625 363.467 352.614 364.614L378.196 379.44C379.241 380.118 380.112 381.032 380.739 382.108C381.366 383.185 381.732 384.393 381.807 385.636Z" fill="#F5F5F5"/>
<path d="M404.328 405.634V390.548L403.533 390.93V406.077L404.328 405.634Z" fill="#37474F"/>
<path opacity="0.2" d="M404.328 405.634V390.548L403.533 390.93V406.077L404.328 405.634Z" fill="black"/>
<path d="M426.682 330.067C417.502 327.405 384.79 318.24 374.845 315.027C367.914 312.778 364.135 311.187 363.998 305.204C363.814 299.635 372.076 254.026 375.06 242.78C377.691 232.927 388.065 225.476 396.969 224.91C399.953 234.763 401.437 257.04 393.603 263.956C390.696 275.538 387.3 296.606 387.3 296.606C387.3 296.606 404.053 305.311 417.349 311.722C423.989 314.92 432.878 317.842 438.172 318.393C442.38 318.837 449.922 320.81 451.529 322.294C455.402 326.229 459.01 330.415 462.331 334.825C463.861 337.288 467.395 342.292 462.331 343.898C457.741 345.352 453.946 343.378 450.183 340.838C448.42 339.568 446.744 338.183 445.164 336.692C441.414 337.1 437.629 336.353 434.316 334.55C431.455 332.882 426.682 330.067 426.682 330.067Z" fill="#FFA8A7"/>
<path d="M593.497 335.713L599.617 262.043C599.679 260.846 599.429 259.653 598.893 258.58C598.357 257.508 597.552 256.593 596.557 255.923C595.468 255.389 594.267 255.121 593.054 255.143C591.841 255.164 590.65 255.473 589.58 256.046L508.919 302.619C507.853 303.313 506.949 304.229 506.268 305.303C505.587 306.377 505.145 307.586 504.971 308.846L498.851 382.5C498.788 383.698 499.037 384.891 499.574 385.964C500.11 387.037 500.915 387.952 501.911 388.62C503.007 389.145 504.21 389.406 505.424 389.382C506.638 389.358 507.83 389.05 508.903 388.482L589.55 341.925C590.615 341.233 591.518 340.32 592.199 339.248C592.88 338.176 593.323 336.971 593.497 335.713Z" fill="#E0E0E0"/>
<path d="M593.497 335.713L599.617 262.043C599.679 260.846 599.429 259.653 598.893 258.58C598.357 257.508 597.552 256.593 596.557 255.923C595.468 255.389 594.267 255.121 593.054 255.143C591.841 255.164 590.65 255.473 589.58 256.046L508.919 302.619C507.846 303.283 506.945 304.189 506.287 305.266L518.833 312.503V382.745L589.55 341.925C590.614 341.233 591.518 340.32 592.199 339.248C592.88 338.176 593.323 336.971 593.497 335.713Z" fill="#FAFAFA"/>
<path d="M505.629 386.432L511.749 312.778C511.92 311.519 512.359 310.311 513.038 309.237C513.716 308.162 514.618 307.246 515.681 306.551L596.343 259.978C598.332 258.83 599.801 259.764 599.617 262.043L593.497 335.713C593.325 336.969 592.884 338.174 592.206 339.246C591.528 340.317 590.627 341.231 589.565 341.925L508.903 388.498C506.93 389.645 505.4 388.727 505.629 386.432Z" fill="#F0F0F0"/>
<path d="M547.261 327.328C547.489 325.352 548.133 323.447 549.151 321.738C550.169 320.029 551.537 318.555 553.166 317.414C556.119 315.7 558.261 317.414 557.955 321.147C557.729 323.126 557.086 325.034 556.068 326.746C555.05 328.457 553.68 329.933 552.049 331.077C549.097 332.775 546.955 331.107 547.261 327.328Z" fill="#37474F"/>
<path d="M545.853 351.563L572.888 335.942L569.507 333.999L542.487 349.605L545.853 351.563Z" fill="#FAFAFA"/>
<path d="M578.197 371.897L554.054 385.835C553.586 386.092 553.057 386.213 552.524 386.187C552.066 386.175 551.616 386.06 551.208 385.851L540.498 379.731C540.088 379.461 539.748 379.096 539.509 378.667C539.269 378.239 539.136 377.758 539.121 377.267V376.701C539.121 375.783 539.748 375.401 540.559 375.86L546.97 379.562L548.408 380.389L548.087 378.767L542.518 349.697L545.884 351.655L572.919 336.049L579.36 369.526C579.406 369.99 579.321 370.458 579.116 370.877C578.911 371.296 578.592 371.649 578.197 371.897Z" fill="#F5F5F5"/>
<path d="M539.534 375.691L547.766 370.933L549.449 382.01L539.534 375.691Z" fill="#E0E0E0"/>
<path d="M545.853 351.564L542.487 349.605L548.056 378.675C548.24 379.562 547.735 379.93 546.939 379.471L540.59 375.799C539.779 375.34 539.151 375.722 539.151 376.64V377.206C539.166 377.697 539.299 378.177 539.539 378.606C539.779 379.035 540.118 379.4 540.528 379.67L551.238 385.79C551.646 385.999 552.096 386.114 552.554 386.126L545.853 351.564Z" fill="#EBEBEB"/>
<path d="M436.351 237.578C434.821 240.715 432.189 241.877 427.599 242.092C425.316 242.096 423.056 241.64 420.953 240.752C418.85 239.863 416.948 238.56 415.359 236.92L421.25 231.642L428.089 237.502L429.083 231.519L436.351 237.578Z" fill="#37474F"/>
<path opacity="0.1" d="M436.351 237.578C434.821 240.715 432.189 241.877 427.599 242.092C425.316 242.096 423.056 241.64 420.953 240.752C418.85 239.863 416.948 238.56 415.359 236.92L421.25 231.642L428.089 237.502L429.083 231.519L436.351 237.578Z" fill="black"/>
<path d="M432.893 235.62C433.427 237.614 433.552 239.696 433.26 241.74C432.925 243.559 432.118 245.258 430.92 246.666C430.17 247.077 429.335 247.309 428.481 247.347C427.627 247.384 426.776 247.224 425.993 246.88C424.608 245.538 423.531 243.912 422.837 242.113C422.142 240.314 421.846 238.386 421.969 236.461L428.089 237.563L432.893 235.62Z" fill="#37474F"/>
<path d="M430.919 246.606C430.919 246.606 435.693 287.732 435.785 290.976C435.877 294.219 430.598 305.648 427.783 305.572C424.968 305.495 420.133 294.586 420.24 291.603C420.347 288.619 425.993 246.774 425.993 246.774L430.919 246.606Z" fill="#37474F"/>
<path opacity="0.1" d="M425.993 246.82C426.76 247.222 427.62 247.413 428.485 247.376C429.35 247.338 430.19 247.072 430.92 246.606V247.248C430.183 247.771 429.33 248.107 428.434 248.227C427.539 248.347 426.627 248.248 425.779 247.937L425.993 246.82Z" fill="black"/>
<path d="M428.15 237.502L408.061 220.32L408.199 215.072C408.199 215.072 405.338 215.608 401.85 224.099C404.728 232.154 410.084 239.09 417.15 243.913L422 236.416L428.15 237.502Z" fill="#E0E0E0"/>
<path d="M430.629 218.438C430.629 218.438 433.429 219.203 435.601 223.656C437.361 227.266 437.575 240.409 437.575 240.409L432.893 235.62L428.15 237.548C428.869 233.218 430.216 225.308 430.216 225.308L430.629 218.438Z" fill="#E0E0E0"/>
<path d="M396.969 224.909C396.969 224.909 387.223 224.16 380.674 230.28C374.126 236.4 373.024 241.648 370.347 257.07C367.669 272.492 365.895 285.635 365.895 285.635C365.895 285.635 376.819 293.362 390.222 290.424L394.812 264.674C397.312 259.751 399.218 254.548 400.488 249.175C402.507 238.679 400.197 228.321 396.969 224.909Z" fill="#E0E0E0"/>
</svg>
