<svg width="113" height="50" viewBox="0 0 113 50" fill="none" xmlns="http://www.w3.org/2000/svg">
<g opacity="0.9">
<path d="M38.388 28.519V17.1531C38.388 15.5687 37.8598 14.2193 36.8033 13.1049C35.7533 11.9972 34.4741 11.4399 32.9722 11.4399H30.3375C29.7074 11.4735 29.1665 11.7286 28.7083 12.212C28.2564 12.6886 28.0273 13.2861 28.0273 13.9776V27.5388C27.9955 28.2035 27.5564 28.5257 26.71 28.5257H8.5406C8.04421 28.5257 7.68782 28.4183 7.47781 28.2035C7.41417 28.1363 7.36326 28.0625 7.31871 27.9685H6.89232V18.046C6.87959 18.0661 6.86686 18.0796 6.8605 18.0997C5.19948 20.5233 4.30215 23.3228 4.16214 26.4848V29.1165C4.16214 29.7811 4.37852 30.3451 4.80491 30.8284C4.83036 30.8553 4.84946 30.8822 4.87491 30.9023C5.11038 31.1507 5.36494 31.332 5.6386 31.4662C5.64496 31.4729 5.65133 31.4729 5.65769 31.4729C5.92498 31.5938 6.21136 31.6475 6.5232 31.6475H28.6955C29.3574 31.6475 29.9174 31.3991 30.3884 30.9023C30.8593 30.4055 31.0948 29.8147 31.0948 29.1165V16.0588C31.0948 15.1323 31.4448 14.649 32.1321 14.6154C34.3277 14.7832 35.4223 16.0722 35.4223 18.4891V31.6475H39.6162V28.519H38.388Z" fill="white"/>
<path d="M49.7026 5.65939C49.3463 5.28344 48.8944 5.08203 48.3598 5.08203C47.8634 5.08203 47.4307 5.27672 47.0679 5.65939C46.7052 6.03534 46.5206 6.49186 46.5206 7.02894C46.5206 7.55259 46.6988 8.0091 47.0679 8.39177C47.4243 8.77444 47.8571 8.96913 48.3598 8.96913C48.8944 8.96913 49.3399 8.78115 49.7026 8.39177C50.0654 8.01582 50.25 7.5593 50.25 7.02894C50.2436 6.49186 50.0654 6.03534 49.7026 5.65939ZM53.4956 28.5188C51.1409 28.5188 49.919 27.2835 49.8236 24.7928V11.339H46.8134V27.0351C46.8134 27.599 46.7179 27.9884 46.5334 28.2032C46.3424 28.4181 45.986 28.5255 45.4515 28.5255H39.0938V31.6539H47.4243C48.1816 31.6539 48.8117 31.3384 49.3081 30.7141C50.0336 31.3384 50.9882 31.6539 52.1783 31.6539H54.8575V28.5255H53.4956V28.5188Z" fill="white"/>
<path d="M81.6891 28.5189V24.1484C81.6891 22.5641 81.1673 21.2146 80.1108 20.1002C79.0608 18.9925 77.8007 18.4353 76.3242 18.4353H64.1307C64.3153 15.092 65.569 12.2723 67.8728 9.96958C70.1766 7.66686 72.9322 6.51886 76.1333 6.51886H76.3242V3.3501H76.1333C71.9903 3.3501 68.4519 4.88748 65.5181 7.96897C62.5842 11.0437 61.1014 14.7697 61.0696 19.1402V21.5705H75.0069C77.4507 21.5705 78.6789 22.8796 78.6789 25.4911V28.5122H54.3428V31.6407H83.6174V28.5122H81.6891V28.5189Z" fill="white"/>
<path d="M110.028 14.9913V24.605C110.028 25.8604 109.716 26.8272 109.086 27.5052C108.456 28.1833 107.546 28.5257 106.362 28.5257H105.796C105.299 28.5257 104.943 28.4183 104.733 28.2034C104.529 27.9886 104.428 27.5992 104.428 27.0353V14.9443H101.417V24.652C101.354 27.23 100.126 28.5257 97.7454 28.5257H96.428C95.8934 28.5257 95.5307 28.4183 95.3207 28.2034C95.117 27.9886 95.0152 27.5992 95.0152 27.0353V14.9443H92.005V24.605C92.005 27.2233 90.764 28.5257 88.2884 28.5257H83.0635V31.6542H89.5548C90.624 31.6542 91.6295 31.3386 92.565 30.7143C93.0105 31.3386 93.6215 31.6542 94.4042 31.6542H99.5337C100.355 31.5535 101.169 31.2379 101.984 30.7143C102.423 31.3386 103.034 31.6542 103.817 31.6542H107.629C109.105 31.6542 110.365 31.0969 111.422 29.9892C112.472 28.8815 113 27.5321 113 25.941V14.9913H110.028Z" fill="white"/>
<path d="M20.212 18.583H18.4555C17.8446 18.583 17.3545 18.0594 17.3545 17.4216V15.5687C17.3545 14.9242 17.8509 14.4072 18.4555 14.4072H20.212C20.8229 14.4072 21.313 14.9309 21.313 15.5687V17.4216C21.313 18.0594 20.8229 18.583 20.212 18.583Z" fill="white"/>
<path d="M20.212 23.6785H18.4555C17.8446 23.6785 17.3545 23.1548 17.3545 22.517V20.6641C17.3545 20.0196 17.8509 19.5027 18.4555 19.5027H20.212C20.8229 19.5027 21.313 20.0263 21.313 20.6641V22.517C21.313 23.1615 20.8229 23.6785 20.212 23.6785Z" fill="white"/>
<path d="M15.1788 23.6785H13.4223C12.8114 23.6785 12.3213 23.1548 12.3213 22.517V20.6641C12.3213 20.0196 12.8177 19.5027 13.4223 19.5027H15.1788C15.7897 19.5027 16.2798 20.0263 16.2798 20.6641V22.517C16.2798 23.1615 15.7834 23.6785 15.1788 23.6785Z" fill="white"/>
<path d="M15.1592 18.583H13.4028C12.7918 18.583 12.3018 18.0594 12.3018 17.4216V15.5687C12.3018 14.9242 12.7982 14.4072 13.4028 14.4072H15.1592C15.7702 14.4072 16.2602 14.9309 16.2602 15.5687V17.4216C16.2602 18.0594 15.7638 18.583 15.1592 18.583Z" fill="white"/>
<path d="M31.0948 28.5188V28.9753C31.0948 29.6735 30.8593 30.2643 30.3884 30.7611C29.9175 31.2579 29.3574 31.5063 28.6956 31.5063H6.52323C6.21775 31.5063 5.93137 31.4459 5.65772 31.3318C5.65135 31.3318 5.64499 31.3318 5.63863 31.3251C5.33315 31.1505 5.05313 30.9357 4.8113 30.6873C4.28308 30.1636 3.90124 29.4788 3.79305 28.7605C3.75487 28.5121 3.71032 28.1831 3.71032 27.8273L3.71668 24.7257C3.71668 22.5036 3.71032 20.2948 3.72305 18.0794H3.6785C3.52576 18.0794 3.37303 18.0727 3.22665 18.0659L2.94027 18.0592C1.71201 18.0324 0.770132 17.4147 0.286464 16.3003C-0.190839 15.1993 -0.0699223 14.0446 0.636487 12.9503C0.941961 12.4736 1.33017 12.1245 1.68019 11.8224C1.76292 11.7486 1.84566 11.6747 1.92839 11.6009L3.85669 9.84866C7.10236 6.88802 10.348 3.93409 13.6 0.98688C14.3128 0.3491 15.2292 0 16.1966 0C17.1957 0 18.1503 0.369241 18.8822 1.04059L26.8182 8.27771C26.9327 8.3717 27.0218 8.45226 27.1046 8.54625C27.7982 9.24445 27.8746 10.2246 27.2891 10.9295C26.9709 11.3055 26.5572 11.5136 26.1118 11.5136C25.7172 11.5136 25.329 11.3525 24.9853 11.0369C24.2662 10.3857 23.5471 9.72782 22.8279 9.0699L20.4987 6.94173C19.315 5.86086 18.1249 4.76656 16.9348 3.68569C16.6739 3.45072 16.4384 3.32988 16.2093 3.32988C15.9866 3.32988 15.7384 3.45744 15.4774 3.69241C11.4681 7.33111 7.45874 10.9698 3.45576 14.6152C3.42394 14.6488 3.38575 14.6824 3.35393 14.7092C3.53213 14.7092 5.0595 14.7092 5.0595 14.7092C6.10957 14.7092 6.72688 15.2127 6.86689 16.1795C6.89234 16.3272 6.89871 16.4816 6.89871 16.6494V27.8206C6.9178 28.398 7.06417 28.5188 7.65603 28.5188H31.0948Z" fill="white"/>
<path d="M6.89904 16.7971V27.9683H6.86722V16.3271C6.88631 16.4748 6.89904 16.6293 6.89904 16.7971Z" fill="white"/>
<path d="M112.993 38.4075C113 38.5351 112.732 38.7566 112.548 38.7969C112.262 38.864 111.943 38.817 111.638 38.817H58.7908C41.226 38.817 23.6676 38.817 6.1092 38.817C5.86101 38.817 5.58735 38.8708 5.36461 38.8036C5.11005 38.7163 4.90003 38.5217 4.67093 38.374C4.91276 38.2195 5.14187 37.9711 5.40279 37.9376C5.94374 37.8704 6.50377 37.9174 7.06381 37.9174H111.931C112.153 37.9174 112.402 37.8637 112.586 37.9443C112.764 38.0316 112.981 38.2464 112.993 38.4075Z" fill="white"/>
<path d="M98.1583 49.0619C98.0883 49.1223 98.0183 49.1828 97.9419 49.2499C97.6364 49.0485 97.2546 48.9008 97.051 48.6323C96.6627 48.1287 96.3891 47.5581 96.0518 47.021C95.9563 46.8666 95.81 46.7458 95.5618 46.4571V48.9814C95.0145 49.2902 94.9063 49.0418 94.9063 48.6188C94.9126 47.7125 94.8935 46.7995 94.919 45.8932C94.9254 45.7052 95.1099 45.3628 95.1863 45.3695C95.4218 45.3896 95.7463 45.4836 95.8609 45.6582C96.3509 46.3631 96.7773 47.1083 97.4201 47.8065C97.4201 47.1486 97.3946 46.4974 97.4392 45.8394C97.4519 45.6649 97.6492 45.5038 97.7637 45.3359C97.891 45.4903 98.1328 45.6448 98.1392 45.8059C98.171 46.8935 98.1583 47.981 98.1583 49.0619Z" fill="white"/>
<path d="M85.3739 47.0881V49.0149C84.6293 49.0619 83.9101 49.1558 83.1974 49.129C82.2937 49.0887 81.6764 48.3636 81.6191 47.4238C81.5554 46.3026 82.1282 45.497 83.1274 45.309C84.152 45.1143 84.9411 45.5037 85.202 46.5644C84.8966 46.4033 84.5911 46.2556 84.2984 46.0811C83.732 45.7387 83.191 45.7588 82.7201 46.2019C82.2109 46.6786 82.23 47.8333 82.7455 48.2764C83.2356 48.6859 83.8083 48.7128 84.3429 48.3704C84.5338 48.2495 84.6038 47.9676 84.7566 47.7192C84.3684 47.6252 84.0947 47.5513 83.8211 47.4842C83.8211 47.3902 83.821 47.2895 83.8274 47.1955C84.3047 47.1687 84.7884 47.1284 85.3739 47.0881Z" fill="white"/>
<path d="M8.06921 46.8866C8.41924 46.4838 8.30468 45.7252 7.62373 45.5305C6.96187 45.3358 6.21728 45.3828 5.5045 45.3627C5.40268 45.356 5.21176 45.5977 5.20539 45.7319C5.17994 46.8397 5.19267 47.9541 5.19267 49.0551C5.7527 49.1021 5.7527 49.1021 6.01999 47.6654C6.71367 47.3902 6.99369 47.746 7.19734 48.3099C7.35644 48.7328 7.39463 49.3706 8.21559 49.0752C8.17104 48.9477 8.13922 48.8201 8.08831 48.6993C7.83374 48.1018 7.46463 47.5848 8.06921 46.8866ZM7.45827 46.4905C7.32462 47.3163 6.58003 46.9135 5.92453 47.0008C6.03908 46.504 5.5936 45.8863 6.51639 45.9132C6.96823 45.9199 7.55373 45.9266 7.45827 46.4905Z" fill="white"/>
<path d="M43.0073 48.1957C42.9119 48.7462 42.5491 49.0617 41.9636 49.1423C40.799 49.3034 40.118 48.9476 39.7998 47.7929C40.188 47.9741 40.4108 48.0614 40.6208 48.1755C40.8499 48.3031 41.0663 48.5783 41.2763 48.5716C41.6072 48.5582 41.9382 48.3635 42.2627 48.2494C42.0463 48.0077 41.8809 47.6922 41.6072 47.531C41.289 47.3498 40.8626 47.3431 40.519 47.1887C39.7426 46.8396 39.698 45.9399 40.4108 45.4969C41.2699 44.9732 42.4473 45.3492 42.9182 46.4837C42.5555 46.3562 42.32 46.2823 42.0845 46.1951C41.7981 46.0876 41.5118 45.8997 41.219 45.8795C41.0408 45.8661 40.7163 46.0675 40.6844 46.2219C40.6526 46.3696 40.8626 46.6516 41.0408 46.7321C41.4099 46.9 41.83 46.9537 42.2182 47.0812C42.7782 47.2625 43.1091 47.6116 43.0073 48.1957Z" fill="white"/>
<path d="M36.5482 48.8069C36.37 49.4514 35.8227 49.062 35.4536 49.1224C34.9954 49.1895 34.5181 49.1358 33.958 49.1358V45.3427C34.7154 45.3427 35.4727 45.3293 36.23 45.3561C36.3318 45.3561 36.4337 45.5307 36.5355 45.6247C36.4273 45.7187 36.3255 45.8731 36.2109 45.8865C35.8545 45.9268 35.479 45.8462 35.1418 45.9335C34.9317 45.9872 34.6517 46.2625 34.6517 46.4303C34.6581 46.6116 34.9254 46.8734 35.1354 46.9472C35.4027 47.0412 35.74 46.9472 36.0391 46.9875C36.1536 47.0009 36.2491 47.1553 36.3573 47.2493C36.2555 47.3433 36.1536 47.5044 36.0391 47.5112C35.6063 47.5447 35.1672 47.5246 34.7472 47.5246C34.5053 48.4913 34.5499 48.5182 35.4663 48.5652C35.8354 48.5786 36.1918 48.7196 36.5482 48.8069Z" fill="white"/>
<path d="M54.5392 45.7453C54.4692 45.5708 54.2019 45.3358 54.0492 45.3559C53.8392 45.3761 53.5464 45.5708 53.47 45.752C53.0182 46.8329 52.6363 47.9406 52.2227 49.0416C52.2736 49.1021 52.3309 49.1558 52.3882 49.2162C52.6109 49.0484 52.8209 48.8537 53.0627 48.7261C53.3682 48.5717 53.6991 48.3703 54.0173 48.377C54.3292 48.377 54.6538 48.5918 54.9465 48.7463C55.1947 48.8738 55.4111 49.0551 55.6402 49.2095C55.6911 49.1558 55.742 49.0954 55.7929 49.0349C55.3793 47.9406 54.9847 46.8329 54.5392 45.7453ZM53.4191 47.7325C53.591 47.2156 53.7437 46.7658 53.8964 46.3093C53.9601 46.3026 54.0174 46.2891 54.0746 46.2824C54.2465 46.7322 54.4183 47.182 54.6283 47.7325H53.4191Z" fill="white"/>
<path d="M77.2403 45.6918C77.1703 45.5307 76.8966 45.3964 76.693 45.3561C76.572 45.3293 76.3175 45.4837 76.2666 45.5978C75.8147 46.7458 75.3883 47.9005 74.9619 49.0485C75.0256 49.1022 75.0829 49.1492 75.1465 49.2029C75.3502 49.0888 75.6238 49.0284 75.7384 48.8605C76.2284 48.1355 77.2594 48.1355 77.7685 48.8605C77.8894 49.0351 78.1822 49.0888 78.3985 49.1962C78.4431 49.1425 78.4876 49.0888 78.5322 49.0351C78.0994 47.9139 77.6921 46.7928 77.2403 45.6918ZM77.3357 47.7327H76.1711V47.726C76.3366 47.209 76.4893 46.7391 76.6421 46.2691C76.6993 46.2624 76.7566 46.2557 76.8075 46.249C76.9666 46.7189 77.1384 47.1889 77.3357 47.7327Z" fill="white"/>
<path d="M13.8097 48.5653C13.9688 48.5854 14.1025 48.76 14.2552 48.8674C14.1216 48.9547 13.9879 49.1158 13.8543 49.1225C13.1479 49.1494 12.4351 49.1359 11.6778 49.1359V45.3361C12.4478 45.3361 13.186 45.3227 13.9243 45.3495C14.0388 45.3495 14.147 45.504 14.2616 45.5912C14.1407 45.6986 14.0325 45.8732 13.9052 45.8933C13.5806 45.9403 13.2433 45.9135 12.9124 45.9068C12.5305 45.8933 12.2887 45.9806 12.2823 46.417C12.276 46.8802 12.5115 47.0011 12.9442 46.9742C13.1606 46.9608 13.3961 46.9339 13.6061 46.9809C13.7779 47.0212 13.9179 47.1622 14.0706 47.2629C13.9052 47.3502 13.7461 47.4911 13.5679 47.518C13.3006 47.565 12.9951 47.471 12.7533 47.5583C12.5624 47.6254 12.3205 47.8738 12.3205 48.0416C12.3205 48.2095 12.556 48.4847 12.7406 48.5317C13.0779 48.6056 13.4597 48.5183 13.8097 48.5653Z" fill="white"/>
<path d="M91.6868 49.0956H88.9502V45.4636C90.2485 45.1212 91.3877 45.2823 91.4958 45.9067H89.6185V46.9271C90.1785 46.954 90.7194 46.9875 91.2604 47.0144C91.2031 47.4508 91.2031 47.4508 89.5739 47.6052V48.4041C90.1403 48.8606 91.1331 48.1288 91.6868 49.0956Z" fill="white"/>
<path d="M19.7032 45.7051C19.6332 45.544 19.3659 45.3829 19.1686 45.356C19.0159 45.3359 18.7486 45.5172 18.6849 45.6649C18.2395 46.7726 17.8322 47.8937 17.4121 49.0149C17.4694 49.0753 17.5203 49.1357 17.5776 49.1894C17.7876 49.0686 18.074 48.9947 18.1886 48.8135C18.6659 48.1287 19.7032 48.1354 20.1996 48.8403C20.3205 49.0082 20.6005 49.0686 20.8169 49.176C20.5432 47.8937 20.1487 46.7927 19.7032 45.7051ZM18.5895 47.7326C18.634 47.605 18.6786 47.4708 18.7231 47.3432C18.7613 47.2291 18.7995 47.115 18.8441 46.9941C18.8886 46.8599 18.9395 46.7189 18.9904 46.5712C19.0222 46.4839 19.0541 46.3832 19.0922 46.2825C19.1177 46.2019 19.1495 46.1147 19.175 46.0274L19.1813 46.0341C19.4232 46.7323 19.5886 47.209 19.7732 47.7393H18.5895V47.7326Z" fill="white"/>
<path d="M67.8661 49.0284C67.6179 49.0888 67.5416 49.1223 67.4652 49.1291C65.1105 49.27 65.1105 49.2633 65.1169 47.068C65.1169 46.5309 65.1169 45.9872 65.1169 45.4635C66.5169 45.148 67.5797 45.2889 67.7516 45.9133H65.8296V46.974C66.2687 46.974 66.676 46.9472 67.0706 46.9875C67.2424 47.0076 67.3952 47.162 67.5543 47.256C67.3888 47.35 67.2297 47.5044 67.0579 47.5178C66.676 47.5581 66.2942 47.5313 65.8487 47.5313V48.4241C66.3769 48.8471 67.3506 48.1556 67.8661 49.0284Z" fill="white"/>
<path d="M105.114 47.7932C104.841 48.9077 104.3 49.2366 103.173 49.1561C102.25 49.0889 101.608 48.4377 101.544 47.5046C101.455 46.2827 101.97 45.5174 103.014 45.316C104.001 45.128 104.745 45.5107 104.968 46.5781C104.713 46.4438 104.427 46.3498 104.211 46.1753C103.542 45.6248 102.664 45.8195 102.359 46.6049C102.085 47.2964 102.276 48.149 102.817 48.431C103.313 48.6928 103.803 48.666 104.242 48.2498C104.446 48.0685 104.732 47.9879 105.114 47.7932Z" fill="white"/>
<path d="M110.403 49.0485C110.34 49.0888 110.282 49.1358 110.219 49.1761C110.009 49.0754 109.601 48.9478 109.608 48.8807C109.824 47.4977 108.825 46.5578 108.15 45.3762C109.5 45.2084 109.239 46.531 109.971 46.8465C110.601 46.4705 110.448 45.3158 111.689 45.336C111.192 46.6115 109.881 47.538 110.403 49.0485Z" fill="white"/>
<path d="M26.5635 48.8134C26.4171 48.9208 26.2771 49.1088 26.1307 49.1155C25.5007 49.1491 24.8706 49.1289 24.1451 49.1289C24.1451 47.9406 24.1324 46.8329 24.1642 45.7252C24.1706 45.5909 24.4124 45.4701 24.5461 45.3425C24.6542 45.4902 24.8643 45.6312 24.8643 45.7856C24.8961 46.6651 24.877 47.5445 24.877 48.5516C25.3416 48.5516 25.7489 48.5314 26.1498 48.565C26.2962 48.5784 26.4235 48.7261 26.5635 48.8134Z" fill="white"/>
<path d="M48.0168 47.377C48.0168 47.8201 48.0549 48.2632 47.9977 48.6929C47.9786 48.8674 47.7622 49.0285 47.6349 49.1964C47.5458 49.1561 47.4504 49.1158 47.3613 49.0755C47.3613 48.3303 47.3294 47.5851 47.374 46.8466C47.4122 46.1887 47.2785 45.7725 46.4512 45.8933C46.3494 45.9068 46.2412 45.8598 45.8848 45.7859C46.1966 45.5644 46.343 45.3697 46.5276 45.3428C47.7813 45.1481 49.0732 45.3428 49.3214 45.7792C48.0104 46.0746 48.0104 46.0746 48.0168 47.377Z" fill="white"/>
<path d="M61.8265 45.6249C61.6355 45.7189 61.4573 45.833 61.2601 45.9002C61.1073 45.9471 60.9355 45.9337 60.6491 45.9539V48.9951C60.0636 49.2972 59.9109 49.0958 59.9236 48.6057C59.9427 47.9612 59.9109 47.31 59.9363 46.6655C59.9618 46.1754 59.8663 45.8599 59.2299 45.8934C59.0581 45.9002 58.8735 45.7055 58.6953 45.6048C58.8863 45.5175 59.0708 45.3564 59.2681 45.3429C59.93 45.3161 60.5918 45.3161 61.2537 45.3564C61.451 45.3564 61.6355 45.5242 61.8265 45.6249Z" fill="white"/>
</g>
</svg>
