<svg width="767" height="719" viewBox="0 0 767 719" fill="none" xmlns="http://www.w3.org/2000/svg">
<path d="M383.5 687.263C582.833 687.263 744.424 599.692 744.424 491.667C744.424 383.642 582.833 296.07 383.5 296.07C184.167 296.07 22.5762 383.642 22.5762 491.667C22.5762 599.692 184.167 687.263 383.5 687.263Z" fill="#EDE9F2"/>
<path d="M308.815 639.881C377.552 639.881 433.274 609.686 433.274 572.439C433.274 535.191 377.552 504.997 308.815 504.997C240.077 504.997 184.355 535.191 184.355 572.439C184.355 609.686 240.077 639.881 308.815 639.881Z" fill="#E4DFEC"/>
<path d="M662.753 488.058L648.153 480.149C648.153 480.149 644.584 450.814 646.958 428.093C650.298 396.17 672.267 357.746 698.464 366.777C724.661 375.808 686.453 408.306 677.951 435.384C669.448 462.462 662.753 488.058 662.753 488.058Z" fill="#37474F"/>
<path opacity="0.15" d="M662.753 488.058L648.153 480.149C648.153 480.149 644.584 450.814 646.958 428.093C650.298 396.17 672.267 357.746 698.464 366.777C724.661 375.808 686.453 408.306 677.951 435.384C669.448 462.462 662.753 488.058 662.753 488.058Z" fill="black"/>
<path d="M655.078 484.737C655.311 484.725 655.53 484.629 655.687 484.467C655.845 484.306 655.929 484.093 655.92 483.874C653.362 412.937 690.988 377.246 691.355 376.901C691.522 376.745 691.615 376.533 691.615 376.311C691.615 376.09 691.522 375.878 691.355 375.722C691.274 375.645 691.178 375.584 691.071 375.542C690.965 375.5 690.85 375.479 690.735 375.479C690.62 375.479 690.505 375.5 690.399 375.542C690.292 375.584 690.196 375.645 690.114 375.722C689.716 376.067 651.554 412.276 654.143 483.931C654.147 484.042 654.174 484.151 654.224 484.252C654.273 484.353 654.343 484.443 654.43 484.518C654.517 484.593 654.619 484.651 654.731 484.689C654.842 484.726 654.96 484.742 655.078 484.737Z" fill="white"/>
<path d="M671.929 492.99L661.542 487.367C661.542 487.367 659.765 467.235 670.29 442.789C679.482 421.507 702.156 403.834 713.584 407.544C725.013 411.254 724.722 418.861 719.146 426.842C713.569 434.823 679.697 453.819 671.929 492.99Z" fill="#37474F"/>
<path d="M666.445 490.862C666.679 490.859 666.903 490.77 667.069 490.614C667.235 490.458 667.329 490.248 667.333 490.028C667.119 445.163 711.991 414.85 712.451 414.548C712.547 414.486 712.628 414.407 712.69 414.315C712.752 414.223 712.794 414.12 712.813 414.013C712.831 413.905 712.827 413.795 712.799 413.689C712.771 413.584 712.72 413.484 712.65 413.397C712.514 413.22 712.31 413.099 712.081 413.062C711.852 413.024 711.616 413.072 711.424 413.196C710.965 413.498 665.357 444.329 665.556 490.028C665.556 490.25 665.65 490.462 665.817 490.618C665.983 490.775 666.209 490.862 666.445 490.862Z" fill="white"/>
<path d="M122.539 470.442L136.021 461.9C136.021 461.9 141.949 428.826 136.434 399.649C128.682 358.724 98.5479 345.12 87.8239 349.434C77.0999 353.748 74.8019 365.928 94.8252 389.281C106.698 403.014 122.125 432.335 122.539 470.442Z" fill="#37474F"/>
<g opacity="0.15">
<path d="M122.539 470.442L136.021 461.9C136.021 461.9 141.949 428.826 136.434 399.649C128.682 358.724 98.5479 345.12 87.8239 349.434C77.0999 353.748 74.8019 365.928 94.8252 389.281C106.698 403.014 122.125 432.335 122.539 470.442Z" fill="black"/>
</g>
<path d="M127.166 454.049H127.028C126.89 454.041 126.756 454.006 126.634 453.945C126.512 453.885 126.404 453.801 126.319 453.7C126.234 453.598 126.172 453.48 126.139 453.355C126.105 453.229 126.1 453.098 126.124 452.97C130.996 414.446 113.669 372.629 94.8101 355.992C94.6286 355.819 94.5269 355.587 94.5269 355.345C94.5269 355.102 94.6286 354.87 94.8101 354.698C94.9 354.611 95.0073 354.543 95.1256 354.496C95.244 354.45 95.3711 354.426 95.4995 354.426C95.6279 354.426 95.7551 354.45 95.8734 354.496C95.9918 354.543 96.0991 354.611 96.1889 354.698C115.4 371.637 133.049 414.144 128.116 453.229C128.087 453.45 127.975 453.653 127.801 453.803C127.627 453.953 127.402 454.04 127.166 454.049Z" fill="white"/>
<path d="M87.2419 492.789C85.0971 493.997 78.8465 489.64 77.1153 488.59C74.1484 486.771 71.7317 484.265 70.0988 481.314C68.2669 477.966 67.5871 474.168 68.1531 470.442C68.4669 468.498 68.9225 466.576 69.5166 464.69C70.0528 462.806 70.589 460.923 71.0486 459.025C71.7281 457.178 71.989 455.219 71.8146 453.273C71.2171 449.433 67.525 446.802 64.1546 444.544C60.4472 442.027 56.4946 438.706 56.4946 434.075C56.6836 430.437 58.1671 426.964 60.7076 424.211C63.0056 421.335 65.7632 418.832 67.8314 415.827C69.4487 413.744 70.2741 411.213 70.1754 408.637C69.909 407.049 69.3046 405.528 68.3983 404.165C66.5905 401.174 64.2465 398.413 62.975 395.235C61.7034 392.057 61.7953 387.973 64.507 385.6C66.6671 383.659 69.9609 383.343 72.9483 383.472C75.7634 383.735 78.4827 384.575 80.9147 385.931C88.8351 389.886 93.4924 398.514 101.872 401.519C105.105 402.669 108.629 402.871 111.984 403.647C115.339 404.424 118.801 405.962 120.41 408.824C123.581 414.504 118.05 421.665 120.318 427.691C122.34 433.04 127.978 434.996 131.164 439.784C132.458 441.911 132.994 444.369 132.696 446.802C132.517 450.908 131.535 454.949 129.801 458.723C127.806 462.636 125.555 466.43 123.06 470.083C123.06 470.083 87.5636 492.602 87.2419 492.789Z" fill="#37474F"/>
<path d="M107.954 480.868C107.826 480.866 107.698 480.84 107.58 480.792C107.462 480.744 107.355 480.675 107.265 480.588C107.176 480.501 107.105 480.399 107.058 480.286C107.01 480.174 106.987 480.054 106.989 479.933C107.847 443.523 88.7583 403.719 75.2461 392.215C75.054 392.052 74.9382 391.825 74.9239 391.583C74.9095 391.34 74.9978 391.102 75.1695 390.921C75.2593 390.835 75.3666 390.766 75.485 390.72C75.6034 390.673 75.7305 390.649 75.8589 390.649C75.9873 390.649 76.1144 390.673 76.2328 390.72C76.3512 390.766 76.4584 390.835 76.5483 390.921C90.3363 402.569 109.808 443.063 108.935 479.976C108.933 480.095 108.906 480.213 108.855 480.322C108.805 480.431 108.732 480.53 108.641 480.613C108.55 480.695 108.443 480.76 108.325 480.804C108.207 480.848 108.081 480.87 107.954 480.868Z" fill="white"/>
<path d="M100.8 436.505C100.71 436.527 100.615 436.527 100.524 436.505C87.9925 433.112 72.458 432.766 72.3048 432.752C72.1767 432.75 72.0504 432.724 71.933 432.676C71.8156 432.628 71.7097 432.559 71.6213 432.472C71.5328 432.385 71.4638 432.282 71.4181 432.17C71.3723 432.057 71.3509 431.938 71.355 431.817C71.3526 431.696 71.3771 431.575 71.4269 431.463C71.4767 431.351 71.5507 431.25 71.6443 431.166C71.7379 431.083 71.8491 431.018 71.9707 430.976C72.0923 430.935 72.2217 430.918 72.3508 430.926C72.504 430.926 88.2836 431.285 101.06 434.737C101.307 434.806 101.515 434.965 101.638 435.178C101.762 435.39 101.791 435.64 101.719 435.872C101.66 436.057 101.538 436.219 101.372 436.333C101.206 436.447 101.006 436.507 100.8 436.505Z" fill="white"/>
<path d="M461.877 445.406L456.071 442.257C455.104 441.667 454.298 440.872 453.72 439.934C453.143 438.997 452.809 437.945 452.747 436.864V210.351C452.81 209.271 453.142 208.221 453.717 207.284C454.292 206.348 455.093 205.551 456.056 204.958L617.452 117.499C618.48 117.01 619.616 116.755 620.769 116.755C621.921 116.755 623.057 117.01 624.085 117.499L629.892 120.648C630.859 121.238 631.664 122.034 632.242 122.971C632.82 123.908 633.154 124.96 633.216 126.041V352.554C633.153 353.634 632.821 354.684 632.246 355.621C631.671 356.557 630.87 357.354 629.907 357.947L468.511 445.42C467.483 445.911 466.345 446.165 465.192 446.162C464.039 446.16 462.903 445.901 461.877 445.406Z" fill="#455A64"/>
<path d="M633.216 125.537C632.987 123.927 631.592 123.337 629.923 124.243L468.511 211.717C467.535 212.292 466.729 213.088 466.167 214.032L453.712 207.288C454.269 206.336 455.076 205.535 456.056 204.958L617.452 117.499C618.48 117.01 619.616 116.755 620.769 116.755C621.921 116.755 623.058 117.01 624.086 117.499L629.892 120.648C630.789 121.19 631.55 121.908 632.124 122.751C632.698 123.595 633.07 124.546 633.216 125.537Z" fill="#375155"/>
<path d="M467.944 445.665C466.963 446.038 465.909 446.209 464.852 446.167C463.794 446.125 462.759 445.87 461.816 445.421L455.994 442.257C455.031 441.664 454.23 440.867 453.655 439.931C453.081 438.994 452.748 437.944 452.685 436.864V210.351C452.724 209.269 453.057 208.215 453.65 207.288L466.105 214.032C465.5 214.961 465.162 216.021 465.125 217.109V443.623C465.186 445.406 466.381 446.226 467.944 445.665Z" fill="#3D5A5E"/>
<path d="M465.187 217.138V443.623C465.187 445.608 466.718 446.413 468.511 445.421L629.907 357.947C630.87 357.354 631.671 356.558 632.246 355.621C632.821 354.684 633.153 353.634 633.216 352.555V126.041C633.216 124.057 631.684 123.251 629.907 124.243L468.511 211.717C467.539 212.309 466.732 213.11 466.154 214.052C465.576 214.995 465.244 216.052 465.187 217.138Z" fill="#3D5A5E"/>
<path d="M427.499 303.418C425.416 302.253 415.749 297.091 415.243 296.817C414.849 296.597 414.513 296.296 414.259 295.937C414.006 295.578 413.842 295.171 413.778 294.744C413.715 294.318 413.755 293.883 413.894 293.473C414.034 293.063 414.27 292.687 414.584 292.374L452.746 253.951L465.186 260.652L427.04 299.104C426.74 299.403 426.512 299.76 426.371 300.148C426.231 300.537 426.181 300.95 426.224 301.359C426.268 301.768 426.404 302.163 426.624 302.518C426.844 302.873 427.142 303.18 427.499 303.418Z" fill="#375155"/>
<path d="M465.186 260.695L427.039 299.104C426.616 299.529 426.339 300.064 426.246 300.639C426.153 301.214 426.248 301.802 426.519 302.326C426.789 302.849 427.222 303.283 427.761 303.57C428.3 303.858 428.919 303.985 429.536 303.936L465.186 301.175V260.695Z" fill="#3D5A5E"/>
<path d="M549.201 191.542C568.014 181.346 583.258 189.615 583.258 210.005C583.258 230.396 568.014 255.173 549.201 265.368C530.388 275.564 515.145 267.295 515.145 246.919C515.145 226.542 530.388 201.737 549.201 191.542Z" fill="#37474F"/>
<path d="M548.956 207.59C555.084 204.283 560.002 206.957 560.002 213.572C559.793 217.168 558.684 220.667 556.765 223.785C554.846 226.903 552.17 229.552 548.956 231.518C542.828 234.826 537.895 232.151 537.895 225.536C538.105 221.939 539.217 218.439 541.139 215.321C543.061 212.203 545.739 209.554 548.956 207.59Z" fill="white"/>
<path d="M570.741 242.849C570.741 231.992 562.606 227.577 552.587 233.013L546.321 236.407C536.302 241.842 528.167 255.101 528.167 265.929V268.906C530.059 269.473 532.033 269.759 534.019 269.754C539.394 269.582 544.628 268.095 549.201 265.44C557.91 260.405 565.278 253.568 570.741 245.452V242.849Z" fill="white"/>
<path d="M527.631 366.302L570.772 342.92C572.611 341.927 574.097 342.733 574.097 344.717V357.76C574.034 358.841 573.7 359.893 573.123 360.83C572.545 361.767 571.74 362.563 570.772 363.152L527.631 386.534C525.793 387.526 524.307 386.721 524.307 384.737V371.694C524.369 370.613 524.703 369.561 525.281 368.624C525.858 367.687 526.664 366.891 527.631 366.302Z" fill="#3D5A5E"/>
<path d="M506.505 337.168L591.852 290.893C594.043 289.699 595.835 290.663 595.835 293.05V297.896C595.761 299.193 595.361 300.454 594.669 301.579C593.977 302.703 593.012 303.658 591.852 304.367L506.459 350.642C504.268 351.835 502.491 350.872 502.491 348.485V343.682C502.561 342.375 502.961 341.102 503.659 339.97C504.357 338.837 505.332 337.876 506.505 337.168Z" fill="#FAFAFA"/>
<path d="M516.493 303.677C517.657 303.044 518.561 302.944 519.205 303.39C519.848 303.835 520.17 304.828 520.17 306.352C520.202 307.743 519.871 309.121 519.205 310.364C518.603 311.488 517.659 312.418 516.493 313.039L514.195 314.29V318.934C514.191 319.094 514.149 319.251 514.072 319.394C514.018 319.525 513.922 319.635 513.797 319.711L512.632 320.344C512.593 320.372 512.544 320.387 512.494 320.387C512.445 320.387 512.396 320.372 512.357 320.344C512.274 320.246 512.235 320.122 512.249 319.998V306.553C512.248 306.394 512.285 306.237 512.357 306.093C512.415 305.965 512.51 305.855 512.632 305.777L516.493 303.677ZM514.195 311.687L516.416 310.479C516.953 310.195 517.406 309.789 517.734 309.3C518.082 308.722 518.252 308.065 518.224 307.402C518.224 306.625 518.056 306.179 517.734 306.05C517.507 305.998 517.27 305.996 517.041 306.043C516.813 306.09 516.599 306.186 516.416 306.323L514.195 307.531V311.687Z" fill="#FAFAFA"/>
<path d="M526.589 298.198C526.742 298.112 526.865 298.112 526.941 298.198C527.039 298.327 527.107 298.475 527.141 298.63L530.679 309.875C530.679 309.875 530.679 309.961 530.679 310.004C530.677 310.165 530.635 310.322 530.557 310.465C530.503 310.595 530.406 310.706 530.281 310.781L529.239 311.342C529.056 311.442 528.918 311.457 528.841 311.342C528.767 311.27 528.714 311.18 528.688 311.083L528.06 309.113L523.464 311.586L522.851 314.232C522.807 314.375 522.751 314.515 522.682 314.649C522.606 314.825 522.465 314.968 522.284 315.052L521.242 315.613C521.204 315.643 521.155 315.66 521.104 315.66C521.054 315.66 521.005 315.643 520.967 315.613C520.886 315.52 520.848 315.401 520.859 315.282C520.851 315.23 520.851 315.176 520.859 315.124L524.383 300.054C524.425 299.832 524.492 299.615 524.582 299.406C524.657 299.255 524.78 299.13 524.934 299.047L526.589 298.198ZM527.386 306.913L525.854 301.837L524.322 308.624L527.386 306.913Z" fill="#FAFAFA"/>
<path d="M536.041 292.863C536.554 292.56 537.138 292.377 537.742 292.331C538.169 292.295 538.598 292.386 538.968 292.59C539.304 292.795 539.565 293.091 539.718 293.438C539.886 293.792 539.979 294.173 539.994 294.56C540.004 294.72 539.967 294.879 539.887 295.02C539.833 295.15 539.736 295.261 539.611 295.337L538.6 295.883C538.431 295.969 538.309 295.984 538.232 295.883C538.137 295.824 538.059 295.746 538.002 295.653C537.941 295.524 537.852 295.407 537.742 295.311C537.631 295.214 537.501 295.14 537.359 295.092C536.892 295.029 536.419 295.143 536.041 295.408C535.793 295.559 535.557 295.727 535.337 295.912C535.109 296.108 534.908 296.33 534.739 296.573C534.576 296.807 534.443 297.058 534.341 297.321C534.251 297.571 534.204 297.833 534.203 298.097C534.185 298.34 534.232 298.582 534.341 298.802C534.388 298.879 534.454 298.945 534.535 298.992C534.615 299.04 534.706 299.068 534.801 299.075C535.084 299.121 535.375 299.121 535.658 299.075L536.991 298.802C537.488 298.664 538.006 298.606 538.523 298.63C538.893 298.629 539.253 298.739 539.55 298.946C539.83 299.167 540.033 299.463 540.132 299.794C540.282 300.26 540.349 300.746 540.331 301.232C540.33 301.875 540.232 302.514 540.04 303.13C539.853 303.765 539.58 304.373 539.228 304.942C538.857 305.525 538.415 306.066 537.91 306.553C537.395 307.055 536.807 307.485 536.164 307.833C535.692 308.102 535.174 308.292 534.632 308.394C534.191 308.473 533.736 308.438 533.314 308.293C532.931 308.126 532.615 307.849 532.411 307.502C532.16 307.058 532.024 306.566 532.012 306.064C532.011 305.9 532.047 305.738 532.12 305.589C532.187 305.467 532.288 305.363 532.411 305.287L533.422 304.741C533.575 304.655 533.697 304.626 533.789 304.669C533.881 304.712 533.943 304.784 534.004 304.914C534.067 305.062 534.149 305.202 534.249 305.331C534.344 305.456 534.478 305.551 534.632 305.604C534.834 305.648 535.043 305.648 535.245 305.604C535.57 305.532 535.88 305.41 536.164 305.244C536.461 305.085 536.743 304.903 537.007 304.698C537.522 304.315 537.932 303.822 538.202 303.26C538.324 302.972 538.387 302.664 538.385 302.354C538.4 302.241 538.39 302.127 538.355 302.018C538.321 301.91 538.264 301.808 538.186 301.721C538.103 301.653 538.006 301.602 537.9 301.572C537.794 301.542 537.683 301.534 537.573 301.549C537.226 301.562 536.881 301.615 536.547 301.707C536.149 301.793 535.689 301.894 535.153 301.98C534.742 302.076 534.318 302.106 533.897 302.066C533.565 302.046 533.251 301.919 533.008 301.707C532.743 301.463 532.557 301.154 532.472 300.815C532.349 300.316 532.292 299.804 532.303 299.291C532.302 298.658 532.4 298.028 532.594 297.422C532.777 296.798 533.045 296.198 533.391 295.639C533.722 295.083 534.124 294.566 534.586 294.1C535.006 293.625 535.496 293.209 536.041 292.863Z" fill="#FAFAFA"/>
<path d="M546.107 287.427C546.616 287.114 547.2 286.926 547.807 286.881C548.234 286.847 548.662 286.937 549.033 287.14C549.36 287.35 549.615 287.645 549.768 287.988C549.935 288.342 550.029 288.723 550.044 289.11C550.062 289.27 550.024 289.431 549.937 289.57C549.883 289.7 549.786 289.811 549.661 289.886L548.65 290.433C548.497 290.519 548.374 290.548 548.282 290.433C548.184 290.375 548.109 290.289 548.068 290.188C547.928 289.936 547.693 289.741 547.409 289.642C547.18 289.61 546.947 289.622 546.724 289.676C546.5 289.731 546.29 289.827 546.107 289.958C545.851 290.105 545.61 290.273 545.387 290.462C545.164 290.658 544.968 290.881 544.804 291.123C544.636 291.354 544.501 291.605 544.406 291.871C544.311 292.12 544.259 292.382 544.253 292.647C544.235 292.889 544.282 293.132 544.391 293.352C544.438 293.429 544.504 293.494 544.585 293.542C544.665 293.59 544.756 293.618 544.85 293.625C545.134 293.672 545.424 293.672 545.708 293.625L547.041 293.352C547.539 293.222 548.056 293.163 548.573 293.179C548.943 293.176 549.304 293.287 549.6 293.496C549.88 293.72 550.087 294.014 550.197 294.344C550.332 294.813 550.394 295.297 550.381 295.782C550.38 296.425 550.282 297.064 550.09 297.68C549.903 298.314 549.63 298.923 549.278 299.492C548.909 300.081 548.467 300.626 547.96 301.117C547.443 301.606 546.861 302.032 546.229 302.383C545.757 302.651 545.239 302.841 544.697 302.943C544.261 303.022 543.811 302.987 543.395 302.843C543.004 302.681 542.681 302.403 542.476 302.052C542.224 301.609 542.092 301.115 542.093 300.614C542.075 300.454 542.112 300.292 542.2 300.154C542.254 300.023 542.351 299.913 542.476 299.837L543.487 299.291C543.64 299.205 543.778 299.176 543.855 299.219C543.908 299.242 543.955 299.275 543.992 299.318C544.029 299.36 544.056 299.41 544.069 299.463C544.138 299.609 544.22 299.748 544.314 299.88C544.415 300.007 544.554 300.102 544.713 300.154C544.914 300.197 545.124 300.197 545.325 300.154C545.651 300.082 545.961 299.96 546.245 299.794C546.534 299.631 546.811 299.449 547.072 299.248C547.341 299.051 547.578 298.818 547.777 298.557C547.975 298.309 548.139 298.039 548.267 297.752C548.389 297.464 548.452 297.156 548.451 296.846C548.465 296.734 548.455 296.619 548.421 296.511C548.386 296.402 548.329 296.301 548.251 296.214C548.169 296.145 548.071 296.094 547.965 296.064C547.859 296.035 547.748 296.027 547.639 296.041C547.297 296.061 546.958 296.114 546.628 296.199C546.229 296.285 545.754 296.386 545.233 296.472C544.818 296.569 544.388 296.598 543.962 296.559C543.629 296.542 543.314 296.415 543.073 296.199C542.813 295.954 542.633 295.645 542.552 295.308C542.416 294.815 542.354 294.307 542.369 293.798C542.374 293.16 542.472 292.526 542.66 291.914C542.849 291.292 543.117 290.693 543.456 290.131C543.788 289.571 544.195 289.054 544.667 288.592C545.079 288.136 545.565 287.743 546.107 287.427Z" fill="#FAFAFA"/>
<path d="M557.275 289.225L556.034 296.113C555.998 296.32 555.936 296.523 555.851 296.717C555.791 296.872 555.678 297.004 555.529 297.091L554.364 297.723C554.211 297.81 554.104 297.81 554.027 297.723C553.925 297.605 553.866 297.459 553.859 297.306L552.021 285.155C552.021 285.155 552.021 285.04 552.021 284.997C552.025 284.837 552.067 284.68 552.143 284.537C552.201 284.409 552.297 284.299 552.419 284.221L553.476 283.645C553.564 283.612 553.663 283.612 553.752 283.645C553.844 283.645 553.905 283.761 553.936 283.991L555.146 292.173L556.203 286.033C556.23 285.879 556.277 285.73 556.341 285.587C556.402 285.405 556.533 285.251 556.708 285.155L557.888 284.508C558.057 284.422 558.179 284.436 558.256 284.508C558.322 284.6 558.369 284.702 558.394 284.81L559.466 289.8L560.676 280.309C560.691 280.123 560.748 279.941 560.845 279.777C560.916 279.67 561.01 279.577 561.121 279.504L562.178 278.929C562.217 278.901 562.266 278.886 562.316 278.886C562.365 278.886 562.414 278.901 562.453 278.929C562.497 278.976 562.53 279.031 562.551 279.09C562.572 279.149 562.581 279.212 562.576 279.274C562.582 279.331 562.582 279.389 562.576 279.447L560.738 293.582C560.707 293.789 560.65 293.992 560.569 294.186C560.499 294.339 560.382 294.47 560.232 294.56L559.052 295.193C558.915 295.264 558.807 295.264 558.731 295.193C558.653 295.06 558.591 294.921 558.547 294.776L557.275 289.225Z" fill="#FAFAFA"/>
<path d="M564.445 283.128C564.479 282.33 564.581 281.537 564.751 280.755C564.926 279.991 565.194 279.248 565.548 278.541C565.886 277.853 566.318 277.21 566.835 276.628C567.359 276.051 567.986 275.564 568.688 275.19C569.228 274.846 569.86 274.652 570.512 274.629C570.998 274.634 571.464 274.814 571.814 275.133C572.185 275.524 572.453 275.992 572.595 276.499C572.793 277.159 572.901 277.84 572.917 278.526C572.917 278.785 572.917 279.073 572.917 279.389C572.917 279.705 572.917 280.036 572.917 280.381C572.917 280.726 572.917 281.057 572.917 281.373C572.917 281.69 572.917 281.992 572.917 282.265C572.884 283.058 572.781 283.846 572.61 284.623C572.433 285.385 572.172 286.127 571.829 286.838C571.481 287.523 571.043 288.166 570.527 288.75C570.003 289.322 569.382 289.808 568.688 290.188C568.136 290.53 567.495 290.724 566.835 290.749C566.596 290.754 566.359 290.713 566.138 290.629C565.917 290.545 565.716 290.419 565.548 290.26C565.148 289.858 564.873 289.361 564.751 288.822C564.569 288.159 564.466 287.479 564.445 286.795C564.445 286.536 564.445 286.248 564.445 285.932C564.445 285.616 564.445 285.285 564.445 284.94C564.445 284.595 564.445 284.278 564.445 283.947C564.445 283.617 564.429 283.387 564.445 283.128ZM570.971 279.691C571.005 279.339 570.963 278.985 570.847 278.648C570.731 278.312 570.544 278.002 570.297 277.735C569.899 277.405 569.347 277.419 568.688 277.735C567.973 278.13 567.406 278.723 567.065 279.432C566.63 280.271 566.4 281.189 566.39 282.121C566.39 282.653 566.39 283.243 566.39 283.89C566.39 284.537 566.39 285.112 566.39 285.63C566.356 285.982 566.399 286.336 566.514 286.673C566.63 287.009 566.817 287.319 567.065 287.586C567.463 287.902 568.014 287.873 568.688 287.514C569.392 287.116 569.952 286.53 570.297 285.831C570.732 284.998 570.962 284.084 570.971 283.157C570.971 282.61 570.971 282.021 570.971 281.373C570.971 280.726 570.986 280.209 570.971 279.691Z" fill="#FAFAFA"/>
<path d="M579.597 269.453C580.807 268.805 581.711 268.705 582.339 269.179C582.711 269.564 582.988 270.022 583.149 270.519C583.311 271.016 583.353 271.541 583.273 272.055C583.286 273.032 583.125 274.004 582.798 274.931C582.487 275.795 582.004 276.595 581.374 277.29L583.365 281.359C583.372 281.426 583.372 281.493 583.365 281.56C583.366 281.69 583.334 281.818 583.273 281.934C583.231 282.039 583.156 282.129 583.059 282.193L581.833 282.855C581.634 282.955 581.496 282.97 581.404 282.855C581.323 282.779 581.256 282.692 581.205 282.596L579.321 278.756L577.406 279.792V284.652C577.407 284.811 577.37 284.968 577.299 285.112C577.235 285.237 577.141 285.346 577.023 285.429L575.858 286.061C575.82 286.092 575.771 286.109 575.721 286.109C575.67 286.109 575.621 286.092 575.583 286.061C575.539 286.017 575.505 285.965 575.484 285.908C575.463 285.851 575.455 285.791 575.46 285.731V272.285C575.465 272.125 575.506 271.968 575.583 271.825C575.637 271.695 575.733 271.584 575.858 271.509L579.597 269.453ZM577.436 277.189L579.597 276.096C580.124 275.819 580.576 275.43 580.914 274.96C581.269 274.406 581.44 273.765 581.404 273.119C581.404 272.343 581.236 271.911 580.914 271.825C580.448 271.766 579.975 271.879 579.597 272.142L577.513 273.263L577.436 277.189Z" fill="#FAFAFA"/>
<path d="M589.861 263.916C590.417 263.576 591.053 263.368 591.714 263.312C592.194 263.296 592.661 263.456 593.016 263.758C593.422 264.159 593.703 264.656 593.828 265.196C594.034 265.909 594.148 266.643 594.165 267.382C594.165 268.388 594.165 269.424 594.165 270.473C594.134 271.33 594.021 272.181 593.828 273.019C593.653 273.797 593.386 274.554 593.032 275.276C592.69 275.94 592.257 276.559 591.745 277.117C591.233 277.689 590.622 278.175 589.937 278.555L586.306 280.41C586.268 280.44 586.219 280.457 586.168 280.457C586.118 280.457 586.069 280.44 586.031 280.41C585.986 280.367 585.952 280.314 585.93 280.257C585.909 280.2 585.902 280.139 585.908 280.079V266.634C585.912 266.474 585.954 266.317 586.031 266.174C586.085 266.044 586.181 265.933 586.306 265.857L589.861 263.916ZM592.22 268.388C592.213 267.999 592.151 267.612 592.036 267.238C591.965 266.955 591.811 266.696 591.592 266.49C591.495 266.4 591.381 266.329 591.254 266.282C591.128 266.235 590.992 266.213 590.856 266.217C590.473 266.241 590.103 266.36 589.784 266.562L587.854 267.597V276.973L589.861 275.895C590.249 275.683 590.596 275.41 590.887 275.089C591.172 274.774 591.414 274.426 591.607 274.054C591.798 273.658 591.942 273.243 592.036 272.817C592.143 272.373 592.204 271.921 592.22 271.466C592.266 270.416 592.266 269.395 592.22 268.388Z" fill="#FAFAFA"/>
<path d="M316.904 257.704H262.472V133.921C262.472 123.17 267.022 112.859 275.121 105.257C283.221 97.6551 294.205 93.3842 305.659 93.3842H310.684C322.138 93.3842 333.123 97.6551 341.222 105.257C349.321 112.859 353.871 123.17 353.871 133.921V223.077C353.851 232.268 349.947 241.075 343.017 247.567C336.086 254.059 326.695 257.704 316.904 257.704Z" fill="#263238"/>
<path d="M257.171 555.701C256.208 560.83 255.696 566.024 255.639 571.231C255.44 580.665 253.602 584.015 253.357 591.752C253.065 600.595 254.705 603.903 258.519 608.878C262.334 613.854 272.307 618.355 276.628 609.957C280.948 601.559 280.32 596.051 278.956 587.38C277.562 578.407 277.424 573.446 276.566 566.615C275.862 560.59 275.034 556.003 275.034 556.003L257.171 555.701Z" fill="#263238"/>
<path d="M285.697 493.047L252.606 492.486C253.096 513.222 256.604 536.245 257.202 555.758C257.325 559.425 257.11 584.216 258.581 591.708C260.802 603.04 275.111 601.501 275.877 594.728C276.643 587.955 274.958 559.008 275.004 556.017C274.866 543.535 281.132 522.469 284.364 500.065C284.502 498.986 285.544 494.126 285.697 493.047Z" fill="#FFA8A7"/>
<path d="M328.21 539.567C328.21 539.567 326.908 538.906 326.678 540.214C326.356 541.767 325.866 544.974 325.146 547.534C324.196 551.085 323.399 556.938 323.966 559.843C324.533 562.748 331.734 566.458 336.406 567.809C342.165 569.477 347.417 572.411 351.726 576.365C356.322 580.449 366.326 584.303 373.174 584.26C381.217 584.26 386.824 581.744 389.475 577.703C392.125 573.662 387.054 573.173 377.862 567.637L370.738 563.323C356.169 554.393 350.822 549.619 346.732 540.689L328.21 539.567Z" fill="#263238"/>
<path d="M346.855 534.03C346.609 527.617 351.328 473.102 351.328 473.102L319.907 486.548C326.632 524.252 328.072 533.153 328.18 539.322C328.042 539.839 327.985 540.372 328.011 540.904C328.011 548.223 336.851 552.178 343.714 557.067C349.549 561.357 355.766 565.168 362.297 568.456C367.291 570.8 377.433 571.016 378.69 568.01C370.325 562.014 358.161 553.041 351.512 546.196C348.264 542.975 347.1 540.458 346.855 534.03Z" fill="#FFA8A7"/>
<path d="M266.164 290.706C254.092 315.569 254.092 334.81 256.099 366.547C257.876 395.666 260.833 421.334 260.833 421.334C260.373 426.497 252.728 436.577 251.733 459.413C250.813 480.753 253.265 507.888 253.265 507.888C253.265 507.888 270.438 516.818 283.139 507.801C283.139 507.801 295.395 452.884 298.979 426.166C302.043 402.856 307.559 373.075 307.559 373.075L319.156 426.008C316.653 433.518 314.838 441.215 313.733 449.016C312.109 464.733 321.485 495.593 321.485 495.593C321.485 495.593 339.225 500.554 350.056 491.538C350.056 491.538 354.101 441.366 355.618 422.442C357.64 397.09 353.381 328.468 350.056 292.13L266.164 290.706Z" fill="#455A64"/>
<path d="M307.589 373.032L312.354 333.142C312.354 333.142 333.71 330.467 343.392 321.925C340.621 325.995 336.929 329.442 332.579 332.022C328.229 334.601 323.327 336.251 318.221 336.852L311.327 373.967L319.156 426.008L307.589 373.032Z" fill="#263238"/>
<path d="M394.071 280.9C394.953 273.62 395.342 266.296 395.235 258.97C394.76 252.643 393.55 251.607 384.128 240.405C371.413 225.263 360.551 211.645 349.061 198.114C340.849 188.451 332.209 186.969 323.813 187.401C317.931 187.703 329.421 214.263 335.196 229.98L368.18 263.313C369.202 264.628 369.671 266.251 369.498 267.871L367.506 296.229L377.388 308.653C377.388 308.653 392.355 296.545 394.071 280.9Z" fill="#FFA8A7"/>
<path d="M292.009 188.263C285.621 188.68 274.008 189.701 274.008 189.701C267.313 193.21 265.613 196.1 264.372 204.441C263.836 208.007 266.93 217.484 269.581 230.958L274.606 255.936L274.054 268.331C271.45 275.895 265.552 285.285 260.343 299.133C285.927 312.535 307.375 313.039 326.832 310.637C341.661 308.84 349.52 305.475 352.14 302.139C351.589 288.463 350.608 280.008 350.302 265.714C350.195 259.718 350.578 253.649 350.838 246.747C360.781 239.068 360.903 226.298 355.434 217.987C342.826 198.818 330.554 186.753 322.435 187.372L292.009 188.263Z" fill="#37474F"/>
<path opacity="0.6" d="M292.009 188.263C285.621 188.68 274.008 189.701 274.008 189.701C267.313 193.21 265.613 196.1 264.372 204.441C263.836 208.007 266.93 217.484 269.581 230.958L274.606 255.936L274.054 268.331C271.45 275.895 265.552 285.285 260.343 299.133C285.927 312.535 307.375 313.039 326.832 310.637C341.661 308.84 349.52 305.475 352.14 302.139C351.589 288.463 350.608 280.008 350.302 265.714C350.195 259.718 350.578 253.649 350.838 246.747C360.781 239.068 360.903 226.298 355.434 217.987C342.826 198.818 330.554 186.753 322.435 187.372L292.009 188.263Z" fill="white"/>
<path opacity="0.1" d="M331.029 246.933C331.029 246.933 319.355 255.446 306.011 251.003C302.264 249.895 298.885 247.898 296.201 245.205C293.518 242.512 291.62 239.214 290.691 235.631C290.691 235.631 289.282 249.939 306.088 254.814C322.373 259.516 331.029 246.933 331.029 246.933Z" fill="black"/>
<path d="M346.87 148.992C346.364 169.756 339.21 174.876 335.594 176.314C331.979 177.752 325.054 176.889 318.313 175.839V188.378C318.313 188.378 326.096 196.029 325.514 201.737C324.931 207.446 313.258 208.093 304.556 202.5C299.754 199.404 295.412 195.724 291.641 191.556C290.917 190.752 290.521 189.733 290.523 188.68V159.345C290.523 159.345 286.831 163.012 280.304 158.813C278.896 157.97 277.69 156.86 276.764 155.556C275.837 154.251 275.209 152.78 274.921 151.235C274.633 149.691 274.69 148.107 275.09 146.584C275.489 145.062 276.221 143.634 277.24 142.391C280.09 139.242 287.321 139.026 290.783 143.829C292.744 147.41 293.004 151.019 295.195 149.581C301.017 145.641 297.892 136.639 304.923 132.325C307.231 131.195 309.628 130.233 312.093 129.449C324.64 125.38 335.517 121.957 338.137 113.904C343.07 116.55 347.482 124.502 346.87 148.992Z" fill="#FFA8A7"/>
<path d="M322.128 167.542C323.736 167.542 325.039 166.318 325.039 164.809C325.039 163.3 323.736 162.077 322.128 162.077C320.521 162.077 319.217 163.3 319.217 164.809C319.217 166.318 320.521 167.542 322.128 167.542Z" fill="#B16668"/>
<path d="M320.197 145.842C320.197 146.405 320.02 146.955 319.69 147.424C319.359 147.893 318.89 148.261 318.339 148.483C317.788 148.704 317.18 148.769 316.59 148.669C316 148.569 315.454 148.309 315.02 147.921C314.586 147.533 314.283 147.034 314.148 146.486C314.013 145.938 314.052 145.365 314.261 144.837C314.47 144.31 314.838 143.852 315.322 143.519C315.805 143.186 316.382 142.994 316.98 142.966C317.395 142.947 317.81 143.007 318.2 143.142C318.589 143.278 318.945 143.487 319.246 143.756C319.547 144.025 319.787 144.349 319.95 144.707C320.114 145.066 320.198 145.452 320.197 145.842Z" fill="#263238"/>
<path d="M343.407 146.13C343.439 146.482 343.395 146.836 343.279 147.172C343.163 147.508 342.977 147.819 342.732 148.086C342.487 148.354 342.187 148.573 341.851 148.731C341.514 148.889 341.148 148.982 340.772 149.006C340.394 149.039 340.012 148.996 339.652 148.879C339.293 148.763 338.964 148.576 338.687 148.332C338.41 148.087 338.192 147.79 338.047 147.46C337.902 147.13 337.834 146.774 337.846 146.418C337.807 146.063 337.845 145.705 337.958 145.365C338.071 145.025 338.257 144.71 338.505 144.439C338.752 144.169 339.056 143.949 339.397 143.793C339.738 143.637 340.11 143.547 340.489 143.531C340.868 143.514 341.247 143.57 341.602 143.696C341.958 143.822 342.282 144.014 342.555 144.261C342.828 144.509 343.045 144.806 343.191 145.135C343.338 145.463 343.411 145.817 343.407 146.173V146.13Z" fill="#263238"/>
<path d="M316.26 153.234C313.618 153.234 311.084 152.25 309.214 150.497C307.344 148.745 306.291 146.367 306.287 143.887C306.287 137.531 313.273 137.531 316.26 137.531C319.248 137.531 326.218 137.531 326.218 143.887C326.214 146.365 325.164 148.74 323.297 150.492C321.431 152.244 318.9 153.23 316.26 153.234ZM316.26 138.998C310.132 138.998 307.865 140.436 307.865 143.887C307.865 145.984 308.753 147.996 310.333 149.479C311.913 150.963 314.056 151.796 316.291 151.796C318.526 151.796 320.669 150.963 322.249 149.479C323.829 147.996 324.717 145.984 324.717 143.887C324.656 140.364 322.297 138.998 316.26 138.998Z" fill="#455A64"/>
<path d="M341.554 153.234C338.911 153.234 336.377 152.25 334.507 150.497C332.637 148.745 331.585 146.367 331.581 143.887C331.581 137.531 338.566 137.531 341.554 137.531C344.541 137.531 351.512 137.531 351.512 143.887C351.508 146.365 350.457 148.74 348.591 150.492C346.724 152.244 344.194 153.23 341.554 153.234ZM341.554 138.998C335.518 138.998 333.159 140.436 333.159 143.887C333.159 145.984 334.046 147.996 335.626 149.479C337.207 150.963 339.35 151.796 341.585 151.796C343.819 151.796 345.962 150.963 347.543 149.479C349.123 147.996 350.011 145.984 350.011 143.887C349.949 140.364 347.59 138.998 341.554 138.998Z" fill="#455A64"/>
<path d="M327.766 140.867L328.256 158.339L338.045 155.491L327.766 140.867Z" fill="#F28F8F"/>
<path d="M318.298 175.882C311.19 175.005 296.559 171.065 294.276 165.629C295.195 168.376 296.986 170.795 299.409 172.56C303.775 176.084 318.298 180.038 318.298 180.038V175.882Z" fill="#F28F8F"/>
<path d="M318.651 132.383L312.155 136.107C311.643 135.27 311.494 134.28 311.74 133.343C311.985 132.406 312.605 131.593 313.472 131.074C313.901 130.83 314.378 130.67 314.874 130.604C315.37 130.538 315.876 130.567 316.36 130.689C316.844 130.811 317.296 131.024 317.69 131.316C318.084 131.607 318.411 131.97 318.651 132.383Z" fill="#263238"/>
<path d="M345.077 136.524L337.846 134.151C337.986 133.701 338.223 133.283 338.541 132.922C338.86 132.561 339.253 132.266 339.698 132.053C340.143 131.84 340.629 131.715 341.128 131.685C341.626 131.655 342.125 131.721 342.595 131.879C343.565 132.206 344.364 132.871 344.826 133.736C345.288 134.6 345.378 135.599 345.077 136.524Z" fill="#263238"/>
<path d="M325.437 144.635C325.333 144.635 325.23 144.615 325.135 144.578C325.039 144.54 324.952 144.484 324.879 144.415C324.807 144.345 324.749 144.263 324.711 144.172C324.673 144.081 324.654 143.984 324.656 143.887C324.656 142.693 327.168 141.917 329.436 141.917C331.703 141.917 333.159 142.693 333.159 143.887C333.111 144.043 333.01 144.181 332.872 144.279C332.734 144.376 332.566 144.429 332.393 144.429C332.219 144.429 332.051 144.376 331.913 144.279C331.775 144.181 331.674 144.043 331.627 143.887C331.627 143.743 330.845 143.384 329.482 143.384C328.384 143.362 327.292 143.537 326.265 143.901C326.265 144.001 326.243 144.1 326.201 144.192C326.159 144.284 326.097 144.367 326.02 144.436C325.942 144.504 325.851 144.558 325.75 144.592C325.65 144.626 325.544 144.641 325.437 144.635Z" fill="#455A64"/>
<path d="M307.099 144.002H307.007L289.497 142.564C288.678 141.802 287.704 141.205 286.632 140.809L307.191 142.592C307.397 142.618 307.585 142.717 307.714 142.87C307.842 143.024 307.902 143.218 307.881 143.412C307.845 143.581 307.747 143.732 307.604 143.84C307.461 143.948 307.283 144.005 307.099 144.002Z" fill="#455A64"/>
<path d="M235.202 161.143C240.932 153.953 244.839 148.531 250.063 142.449C253.035 138.954 254.935 136.452 257.723 132.872C259.684 130.398 260.787 128.313 263.024 127.551C265.44 126.622 267.618 125.22 269.412 123.438C270.515 122.293 271.538 121.083 272.476 119.815C275.76 115.666 279.66 111.981 284.058 108.871C288.654 105.621 293.786 103.119 298.52 100.028C301.339 98.1726 304.357 95.0953 300.925 92.2193C299.873 91.3873 298.613 90.8184 297.264 90.5656C288.914 88.8688 281.653 91.5578 273.487 93.5135C269.94 94.3445 266.472 95.4458 263.116 96.8065C261.465 97.4193 259.917 98.2523 258.52 99.2799C256.566 101.129 254.965 103.279 253.786 105.636C250.216 111.618 242.556 116.967 237.194 121.698C230.928 127.235 225.321 132.311 218.167 138.408C211.732 143.915 205.436 148.977 199.538 154.988C194.65 159.949 196.474 163.832 197.117 165.183C201.1 172.862 205.558 175.623 210.905 180.383C220.097 188.623 251.886 212.335 262.411 220.173C264.672 221.84 266.448 224.016 267.574 226.5L269.596 230.886C281.607 232.956 289.619 216.031 279.676 195.655C278.03 192.36 275.515 189.514 272.369 187.386C259.806 178.801 235.202 161.143 235.202 161.143Z" fill="#FFA8A7"/>
<path d="M235.202 161.143C231.379 165.557 226.285 168.846 220.526 170.619C220.526 170.619 228.186 172.46 238.68 163.616L235.202 161.143Z" fill="#F28F8F"/>
<path d="M390.945 265.901L388.984 264.319C388.691 264.138 388.357 264.024 388.008 263.987C387.66 263.949 387.307 263.989 386.978 264.104L365.698 269.539C364.626 269.875 363.644 270.424 362.819 271.148C361.994 271.873 361.346 272.756 360.918 273.738L345.598 315.196C345.414 315.534 345.341 315.916 345.39 316.292C345.44 316.669 345.608 317.024 345.874 317.31L347.896 318.949C348.191 319.139 348.53 319.26 348.885 319.3C349.24 319.34 349.6 319.299 349.934 319.179L371.244 313.743C372.316 313.408 373.298 312.859 374.123 312.134C374.948 311.41 375.596 310.526 376.024 309.544C379.088 301.391 388.28 276.24 391.344 268.087C391.711 267.066 391.528 266.289 390.945 265.901Z" fill="#455A64"/>
<path d="M347.605 316.792L362.925 275.334C363.351 274.353 363.999 273.471 364.824 272.748C365.65 272.025 366.633 271.48 367.705 271.15L388.969 265.714C390.945 265.211 392.033 266.275 391.328 268.087C388.264 276.24 379.072 301.391 376.008 309.544C375.581 310.526 374.932 311.409 374.107 312.134C373.282 312.859 372.3 313.408 371.228 313.743L349.964 319.236C348.003 319.668 346.946 318.604 347.605 316.792Z" fill="#37474F"/>
<path d="M365.392 272.3C364.286 273.086 363.428 274.14 362.91 275.348L347.59 316.792C347.415 317.121 347.342 317.49 347.38 317.856C347.418 318.222 347.565 318.571 347.805 318.862L345.905 317.338C345.633 317.055 345.459 316.702 345.407 316.324C345.355 315.946 345.427 315.562 345.614 315.224L360.934 273.767C361.418 272.64 362.205 271.649 363.217 270.891L365.392 272.3Z" fill="#37474F"/>
<path d="M385.109 284.796C383.577 289.009 378.261 291.828 369.467 293.784C360.673 295.739 355.817 304.497 357.211 307.157C358.605 309.817 372.822 312.305 378.506 311.543C384.19 310.781 389.889 303.073 391.62 300.686C393.351 298.299 395.343 281.647 393.52 279.36C391.696 277.074 387.851 277.434 387.851 277.434L385.109 284.796Z" fill="#F28F8F"/>
</svg>
